<?xml version="1.0" standalone="no"?>
<!DOCTYPE svg PUBLIC "-//W3C//DTD SVG 1.1//EN" "http://www.w3.org/Graphics/SVG/1.1/DTD/svg11.dtd" >
<svg xmlns="http://www.w3.org/2000/svg">
<metadata></metadata>
<defs>
<font id="irannastaliqregular" horiz-adv-x="1449" >
<font-face units-per-em="2048" ascent="1638" descent="-410" />
<missing-glyph horiz-adv-x="117" />
<glyph horiz-adv-x="0" />
<glyph unicode="&#xd;" horiz-adv-x="640" />
<glyph unicode=" "  horiz-adv-x="117" />
<glyph unicode="&#x09;" horiz-adv-x="117" />
<glyph unicode="&#xa0;" horiz-adv-x="117" />
<glyph unicode="!" horiz-adv-x="778" d="M322 73q122 250 146 285l39 -35q103 -81 114 -145q6 -53 -38 -137q-18 -28 -50 -67t-52 -47l-103 80q-18 12 -31 27t-25 39zM346 1254q2 28 66.5 160t86.5 131q102 -110 106.5 -368t-118.5 -675q-7 -13 -15.5 -18t-15.5 -3.5t-10.5 9t-1.5 18.5q31 396 -98 746z" />
<glyph unicode="&#x22;" horiz-adv-x="845" d="M201 1263q10 145 46 312q112 192 121 121q-4 -65 -58 -257t-83 -262q-19 -16 -26 86zM462 1263q11 145 46 312q112 192 121 121q-4 -65 -58 -257t-83 -262q-19 -16 -26 86z" />
<glyph unicode="#" horiz-adv-x="1258" d="M163 442l12 98h267l171 358h-360l12 96h393l210 444h108l-210 -444h272l208 444h110l-209 -444h236l-14 -96h-270l-168 -358h359l-12 -98h-392l-208 -442h-108l208 442h-273l-208 -442h-108l208 442h-234zM552 540h271l170 358h-272z" />
<glyph unicode="$" horiz-adv-x="1014" d="M118 51l120 124q140 -93 276 -102l75 381l-64 42q-177 117 -177 245q0 115 95 197t265 109l28 151h62l-30 -142q129 0 270 -53l-54 -213h-59q8 35 8 54q0 125 -177 140l-75 -377l54 -40q109 -80 142 -124t33 -110q0 -111 -95 -199.5t-254 -124.5l-32 -152h-61l31 146 q-28 -3 -40 -3q-185 0 -341 51zM495 816q0 -65 100 -144l32 -29l67 339q-199 -22 -199 -166zM576 79q187 33 187 176q0 73 -88 135l-35 24z" />
<glyph unicode="%" horiz-adv-x="1510" d="M177 -36l1323 1512h127l-1324 -1512h-126zM276 975q0 192 110 327.5t266 135.5q113 0 181 -69t68 -186q0 -193 -111 -328t-271 -135q-108 0 -175.5 69t-67.5 186zM420 964q0 -184 117 -184q88 0 161 126t73 283q0 191 -119 191q-91 0 -161.5 -127t-70.5 -289zM904 255 q0 192 109.5 328.5t264.5 136.5q114 0 182 -70t68 -185q0 -195 -111.5 -330t-269.5 -135q-109 0 -176 69.5t-67 185.5zM1047 246q0 -186 117 -186q90 0 161 126.5t71 282.5q0 192 -117 192q-91 0 -161.5 -127.5t-70.5 -287.5z" />
<glyph unicode="&#x26;" horiz-adv-x="1087" d="M128 232q0 209 305 332q-34 98 -34 153q0 103 86 185t194 82q78 0 124.5 -44.5t46.5 -115.5q0 -178 -287 -269q83 -221 186 -359q100 105 117 236h-133l61 95h172q127 0 196 43l-50 -80q-77 -58 -145 -58h-20q-52 -156 -176 -268q92 -116 151 -116q52 0 135 56q8 5 22 14 l-10 -49q-114 -93 -215 -93q-58 0 -94 21.5t-97 90.5q-139 -112 -272 -112q-113 0 -188 73t-75 183zM264 271q0 -93 56 -154t142 -61q76 0 181 65q-117 171 -199 406q-180 -82 -180 -256zM518 769q0 -72 34 -174q192 75 192 235q0 113 -93 113q-60 0 -96.5 -48t-36.5 -126z " />
<glyph unicode="'" horiz-adv-x="430" d="M163 1099q8 111 35 239q86 147 93 93q-3 -50 -44.5 -197t-63.5 -201q-15 -12 -20 66z" />
<glyph unicode="(" horiz-adv-x="714" d="M129 600v12q0 213 108 429.5t328 372.5q15 11 35 3q13 -15 -8 -49q-268 -426 -265 -764.5t265 -759.5q21 -35 8 -50q-20 -7 -35 3q-220 156 -328 374q-108 216 -108 429z" />
<glyph unicode=")" horiz-adv-x="691" d="M142 -206q-13 15 8 50q262 421 265 759.5t-265 764.5q-21 34 -8 49q20 8 35 -3q220 -156 328 -372.5t108 -429.5v-12q0 -213 -108 -429q-108 -218 -328 -374q-15 -10 -35 -3z" />
<glyph unicode="*" horiz-adv-x="1126" d="M358 867l326 279h-324l37 93h324l-223 265h93l172 -205l59 300l127 40l-63 -327l240 192h108l-330 -265h335l-39 -93h-314l224 -279h-92l-175 220l-62 -301l-127 -39l67 340l-258 -220h-105z" />
<glyph unicode="+" horiz-adv-x="1117" d="M117 429v120h379v378h125v-378h378v-120h-378v-380h-125v380h-379z" />
<glyph unicode="," horiz-adv-x="324" d="M-11 -207l119 418h181l-196 -418h-104z" />
<glyph unicode="-" horiz-adv-x="867" d="M156 313v122h576v-122h-576z" />
<glyph unicode="." horiz-adv-x="643" d="M212 125q0 35 56 146t73 120q34 15 97 -52.5t67 -105.5q0 -49 -53 -144t-76 -95q-10 0 -62.5 36.5t-79.5 57.5q-22 19 -22 37z" />
<glyph unicode="/" horiz-adv-x="868" d="M126 -171l441 1359h114l-441 -1359h-114z" />
<glyph unicode="0" horiz-adv-x="1407" d="M123.5 715.5q20.5 127.5 96.5 232.5v-1q74 109 182 161t250 52q217 0 368 -121q153 -123 198 -329q33 -155 12 -285.5t-95 -238.5q-150 -210 -440 -210q-209 0 -364 122q-150 126 -196 337q-32 153 -11.5 280.5zM384.5 633q-1.5 -125 31.5 -281q26 -128 93.5 -191.5 t176.5 -63.5q154 0 217 112q23 42 37.5 103t19.5 146q7 87 3.5 165t-19.5 149q-57 267 -279 267q-88 0 -146.5 -46.5t-93.5 -137.5q-39 -97 -40.5 -222z" />
<glyph unicode="1" horiz-adv-x="919" d="M96 1104l489 62l-9 -359v2l7 -491q0 -69 2.5 -113.5t4.5 -49.5q6 -33 61 -33h120l29 -122h-691l28 122h90q38 0 59 4.5t26 9.5q2 6 4 22t3.5 40.5t2.5 55.5t1 66q-1 122 -1 249t-5 248l1 -2q-2 55 -4.5 89.5t-7.5 51.5q-1 18 -61 21l-123 8z" />
<glyph unicode="2" horiz-adv-x="1206" d="M89 0l27 209q329 199 479 362t123 290q-16 75 -77 128q-65 50 -148 50q-109 0 -165.5 -54t-65.5 -163h-121l-18 280q110 30 203 44t170 14q99 0 183 -20.5t148.5 -58t106 -90.5t55.5 -118q15 -69 0.5 -131t-61.5 -113q-43 -48 -147.5 -128.5t-276.5 -195.5l-127 -87h684 l-38 -218h-934z" />
<glyph unicode="3" horiz-adv-x="1135" d="M44 -222l138 188q100 -75 184 -112.5t156 -37.5q61 0 107 20t81 61q31 40 42.5 88t-1.5 105q-12 60 -48.5 110.5t-96.5 88.5q-119 80 -289 80q-17 0 -50 -2.5t-81 -6.5l54 216q54 0 102.5 -2t90.5 -5q124 33 192 118q65 86 44 175q-8 39 -29.5 72t-52 56t-68.5 36t-80 13 q-103 0 -156.5 -54t-61.5 -163h-118l-16 274q114 33 210 48.5t174 15.5q88 0 163.5 -18t133.5 -51.5t96 -81t51 -105.5q23 -109 -44.5 -205t-225.5 -178q140 -54 221.5 -140.5t108.5 -207.5q42 -202 -111 -347q-145 -144 -384 -144q-99 0 -207 24t-229 72z" />
<glyph unicode="4" horiz-adv-x="1384" d="M21 71l1 130l813 935l153 37l11 -946l304 -14l-23 -197l-276 16q5 -66 10.5 -110.5t10.5 -67.5q3 -23 50 -23h114l37 -125h-677l33 125h104q55 0 63 20q8 14 11.5 62t6.5 127zM252 257l514 -24q-1 83 -1.5 154t-1 139.5t-1 140t-1.5 156.5q-67 -74 -128.5 -143t-123 -137 t-125 -138.5t-132.5 -147.5z" />
<glyph unicode="5" horiz-adv-x="1147" d="M55 -218l135 183q78 -71 157 -103.5t160 -32.5q73 0 126 25.5t90 75.5q72 100 36 265q-49 244 -403 244q-35 0 -84 -5t-110 -18l-9 724h839l-42 -236h-644q-2 -31 -4.5 -59t-4.5 -56t-4.5 -57.5t-4.5 -63.5l46 4t43 2q119 0 220.5 -29t186.5 -84q85 -56 141 -131t74 -166 q47 -228 -121 -406q-85 -87 -190 -131.5t-233 -44.5q-166 0 -400 100z" />
<glyph unicode="6" horiz-adv-x="1316" d="M111 852q30 166 126 311q97 140 233.5 215.5t302.5 75.5q63 0 143 -17.5t171 -52.5l-12 -259h-119q-2 36 -5 55.5t-4 27.5q-5 24 -23 44.5t-45 35.5t-61.5 23.5t-74.5 8.5q-84 0 -157.5 -51t-126.5 -138q-45 -78 -67.5 -165.5t-24.5 -184.5q70 96 155 141t191 45 q151 0 275 -105q123 -100 157 -255q54 -247 -86 -441q-139 -190 -377 -190q-103 0 -192.5 35.5t-166.5 107.5q-77 71 -126.5 165.5t-75.5 212.5q-40 189 -10 355zM406 416q15 -72 44.5 -129.5t74.5 -102.5q42 -42 90 -64.5t99 -22.5q58 0 102 30.5t76 94.5q30 65 37 142.5 t-14 165.5q-56 277 -258 277q-136 0 -210 -115t-41 -276z" />
<glyph unicode="7" horiz-adv-x="1176" d="M53 904l46 236h1000l-31 -164q-312 -432 -463 -748.5t-139 -517.5l-291 -32q-7 263 153 508l473 652l45 66h-793z" />
<glyph unicode="8" horiz-adv-x="1263" d="M105 319q-48 241 268 441q-78 52 -124.5 119t-64.5 148q-17 87 9 161t95 141q68 64 154.5 94.5t192.5 30.5q76 0 144 -19.5t125 -54.5q57 -37 94 -87.5t51 -110.5q22 -105 -39.5 -205t-203.5 -196q129 -79 200.5 -162t91.5 -177q19 -89 -14.5 -172t-105.5 -152 q-75 -71 -171.5 -106.5t-210.5 -35.5q-87 0 -165 22.5t-148 71.5q-73 49 -116.5 111t-61.5 138zM356 346q12 -54 40 -98t68 -75t90.5 -47.5t107.5 -16.5q54 0 93.5 18.5t70.5 56.5q62 76 38 178q-13 64 -85.5 131.5t-207.5 144.5l-77 42q-88 -59 -123 -143.5t-15 -190.5z M404 1092q11 -48 66 -101.5t145 -107.5l54 -32q98 70 136.5 142.5t23.5 148.5q-19 79 -83 126q-67 52 -156 52q-98 0 -153 -65q-51 -64 -33 -163z" />
<glyph unicode="9" horiz-adv-x="1316" d="M102 759.5q20 111.5 89 208.5t163 144.5t212 47.5q103 0 193 -36t165 -108q73 -68 126 -165t75 -212q84 -382 -113 -665q-192 -292 -538 -292q-54 0 -131 14.5t-180 41.5l19 261h112l16 -71q12 -63 65 -93t144 -30q170 0 281 191q47 77 68.5 162t21.5 188 q-33 -43 -72.5 -78t-84 -59.5t-93 -37.5t-98.5 -13q-153 0 -277 105q-64 52 -102.5 117t-53.5 140q-27 128 -7 239.5zM334 606q58 -277 262 -277q140 0 216 111q37 58 48.5 125.5t-5.5 146.5q-16 70 -45.5 126.5t-75.5 102.5q-89 86 -194 86q-118 0 -180 -122 q-64 -124 -26 -299z" />
<glyph unicode=":" horiz-adv-x="676" d="M219 112q0 21 73 123q72 102 90 102q21 0 84 -75q68 -74 68 -94q0 -25 -59 -116q-65 -96 -93 -96q-16 0 -40.5 17t-58.5 48q-64 69 -64 91zM219 703q0 23 73 123q72 102 90 102q21 0 84 -75q68 -73 68 -93q0 -26 -59 -118q-65 -95 -93 -95q-16 0 -40.5 17t-58.5 49 q-64 69 -64 90z" />
<glyph unicode=";" horiz-adv-x="788" d="M315 127q16 38 25 57q29 63 50 99t36 63t27 45q25 -21 62.5 -49.5t58 -54.5t26.5 -59q4 -30 -5.5 -63t-31.5 -74.5t-59 -75.5q-23 -23 -36 -23q-11 0 -41 25t-54 44.5t-41 36.5t-17 29zM352 702q0 104 116 384q122 303 190 289l-85 -175q-63 -106 -94.5 -190.5 t-31.5 -147.5l67 -64q65 -65 65 -96q0 -29 -9 -58.5t-25 -53t-39 -38.5t-50 -15q-104 0 -104 165z" />
<glyph unicode="&#x3c;" horiz-adv-x="1117" d="M150 444v90l805 384v-134l-624 -295l624 -297v-134z" />
<glyph unicode="=" horiz-adv-x="1117" d="M144 271v120h829v-120h-829zM144 586v120h829v-120h-829z" />
<glyph unicode="&#x3e;" horiz-adv-x="1117" d="M160 58v134l626 297l-626 295v134l806 -384v-90z" />
<glyph unicode="?" horiz-adv-x="727" d="M81 933v153q51 21 127.5 36.5t143.5 15.5q155 0 243.5 -78t88.5 -207q0 -73 -25 -130t-65 -101q-41 -43 -92 -80t-108 -71v-171h-135v228q42 25 98.5 61t87.5 66q41 39 63.5 84t22.5 104q0 84 -53.5 126t-138.5 42q-75 0 -142 -25.5t-107 -52.5h-9zM253 0v157h153v-157 h-153z" />
<glyph unicode="@" horiz-adv-x="1396" d="M99 484q0 276 179 465t437 189q276 0 432 -178.5t156 -463.5q0 -103 -28.5 -200.5t-80.5 -178.5h-317l-18 87q-51 -42 -93 -67.5t-115 -25.5q-116 0 -189.5 93t-73.5 268q0 177 91 275.5t206 98.5q54 0 93 -13.5t80 -36.5v36h118v-631h171q29 52 41 137t12 154 q0 246 -124.5 395t-358.5 149q-222 0 -367 -161t-145 -392q0 -248 140.5 -401t366.5 -153q62 0 128.5 8.5t126.5 26.5v-107q-63 -15 -127.5 -21t-127.5 -6q-265 0 -439 182.5t-174 471.5zM517 475q0 -120 39 -183.5t125 -63.5q45 0 90 21.5t85 56.5v388q-42 21 -77 31 t-74 10q-84 0 -136 -64t-52 -196z" />
<glyph unicode="A" horiz-adv-x="2240" d="M48 109l114 346l53 -11q59 -262 218 -285q14 -2 29 -3t29 -1q63 0 114.5 23t89.5 71q53 60 105 166.5t110 262.5l255 701q-39 3 -74 5.5t-64 2.5q-97 0 -166.5 -25.5t-113.5 -73.5q-22 -26 -30 -58q-4 -15 -4 -32q0 -19 5 -39q6 -29 27.5 -71t56.5 -99l-400 -111 q-4 47 -4 89q0 69 10 127q18 94 68 162t154.5 126t255.5 105t304 71q147 24 284 24h11l294 -1054v2q159 -446 418 -446q16 0 32 2l25 -60q-71 -23 -137 -36t-129 -13q-83 0 -159.5 27t-142 85t-117.5 148.5t-87 217.5h-497q-50 -133 -105 -228t-114 -149 q-125 -115 -329 -115q-192 0 -389 146zM1033 593h407q-26 86 -48.5 159.5t-44 145t-44 147t-47.5 164.5z" />
<glyph unicode="B" horiz-adv-x="1664" d="M4 866q-8 65 -8 124q0 98 22 177q35 127 130 210t251.5 123t377.5 40q153 0 268 -17.5t189 -49.5q80 -38 130.5 -99t67.5 -146q10 -46 10 -88q0 -94 -50 -168q-72 -106 -259 -172q174 -63 270.5 -148t118.5 -189q8 -40 8 -77q0 -161 -158 -275q-95 -66 -221.5 -100.5 t-284.5 -34.5l-240 5l-473 21l160 206h33q69 0 112 15.5t61 41.5q19 32 28 105q6 51 6 121q0 31 -1 67l-8 842q-85 -4 -147 -29.5t-107 -71.5q-68 -74 -68 -182q0 -40 9 -84l10 -43zM634 174l39 -6q35 -6 75.5 -12t82.5 -10.5t83 -7.5t77 -3q263 0 263 202q0 40 -10 88 q-16 72 -52.5 128.5t-90.5 95.5t-124 59.5t-151 20.5h-1l1 -86q0 -147 -47.5 -266.5t-144.5 -202.5zM815 1416l10 -559h14q171 0 261 101q65 74 65 178q0 36 -8 76q-23 102 -107 153t-235 51z" />
<glyph unicode="C" d="M84 944q32 182 138 332q113 152 264.5 228t355.5 76q116 0 236.5 -17.5t243.5 -54.5l-31 -326h-122v25q0 24 -1 41q-2 26 -6 43q-8 33 -33 62t-70 51q-98 49 -244 49q-215 0 -333 -191q-42 -66 -70.5 -146.5t-42.5 -180.5q-12 -90 -12 -175v-14q1 -92 20 -178 q23 -103 65.5 -182t109.5 -137l-1 1q127 -115 313 -115q109 0 229.5 34t257.5 100l1 -171q-155 -66 -294 -100.5t-264 -34.5q-135 0 -249.5 39t-204 113.5t-151 183.5t-90.5 249q-28 127 -28 243q0 79 13 153z" />
<glyph unicode="D" horiz-adv-x="2061" d="M5 866q-7 58 -7 111q0 563 754 563h292q172 0 303.5 -33.5t222.5 -99.5q189 -134 249 -427q27 -129 27 -242q0 -305 -196 -497q-263 -265 -833 -265h-21.5t-29.5 1h-44l-565 25l158 206l22 1q7 5 16 3t28 -4h13q93 0 128 56q35 54 35 200v24l-13 912q-82 -4 -145 -29.5 t-108 -71.5q-68 -73 -69 -181q0 -40 10 -85l10 -43zM632 175l105 -18q76 -11 149 -17.5t147 -6.5q196 0 297 52q43 28 85.5 77.5t72.5 118.5q54 127 66 271q4 42 4 86q0 104 -21 212q-102 466 -620 466h-99l9 -738q0 -108 -11.5 -191t-37.5 -138q-20 -42 -56.5 -87 t-89.5 -87z" />
<glyph unicode="E" horiz-adv-x="1559" d="M8 864q-8 64 -8 123q0 97 22 176q35 127 128.5 211t247 125t369.5 41h629l-35 -343h-122q-2 38 -3.5 62t-3.5 40q-13 51 -87 76q-45 14 -126 21.5t-199 7.5h-3l7 -531h482l-131 -163q-123 14 -204 22t-123 8h-23l4 -86q-2 -92 -14 -165.5t-37 -129.5q-21 -43 -52 -85 t-79 -84l398 -16q23 0 52.5 -2t51.5 -2q151 0 315 158l3 -169q-152 -196 -319 -196l-49 2l-946 37l160 206h30q71 0 114.5 14t63.5 41q19 25 29 91q7 50 8 122q0 23 -1 48l-11 876q-84 -4 -147.5 -29.5t-108.5 -71.5q-68 -73 -68 -180q0 -40 10 -86l10 -43z" />
<glyph unicode="F" horiz-adv-x="1623" d="M33 -277l154 203q65 -94 137.5 -138.5t147.5 -44.5q139 0 195 128q29 69 42.5 195.5t14.5 306.5q-2 41 -3.5 79t-2.5 75.5t-1.5 75.5t-1.5 80h-187l95 142h93q-1 74 -1.5 145.5t-1.5 142t-2.5 142t-3.5 145.5q-84 -4 -145 -29.5t-105 -71.5q-70 -77 -70 -185q0 -39 9 -81 l10 -43l-234 -124q-9 69 -9 131q0 94 21 170q35 127 129.5 210t251 123t378.5 40h616l-37 -343h-132q8 41 9 67.5t-2 40.5q-21 99 -401 99h-14l8 -579h468l-124 -164q-87 13 -167 17.5t-155 4.5h-21q0 -68 0.5 -132t2.5 -133v-37q0 -351 -162 -571h2q-87 -115 -200.5 -171.5 t-261.5 -56.5q-81 0 -165.5 34t-173.5 107z" />
<glyph unicode="G" horiz-adv-x="1608" d="M83 962q34 173 146 322q112 146 268.5 221t360.5 75q113 0 234.5 -16.5t252.5 -50.5l-29 -316h-119q-2 35 -4.5 56t-5.5 33q-15 72 -106 116q-51 26 -113.5 38.5t-134.5 12.5q-251 0 -393 -256q-91 -173 -91 -379q0 -108 25 -225q22 -105 68 -185.5t119 -138.5v2 q149 -116 356 -116q63 0 113 5t91 17q-2 59 -3 113.5t-1.5 108t-1 108t-1.5 114.5h-138q-165 0 -327 -155l-11 157q159 191 351 191h395l-15 -350l2 2l7 -235v-10q0 -162 -32 -281q-32 -122 -102.5 -201.5t-179.5 -118t-259 -38.5q-230 0 -432 131l203 129q75 -57 156 -87 t171 -30q59 0 102 16.5t66 50.5q23 35 35.5 96t16.5 149q-78 -18 -157 -28t-166 -10q-135 0 -248.5 39t-211.5 117q-94 81 -157 186t-89 240q-26 118 -26 225q0 81 15 156z" />
<glyph unicode="H" horiz-adv-x="2180" d="M32 119l150 192q144 -181 313 -181q58 0 101.5 27t72.5 78t43.5 125t15.5 169l-1 203h-205l94 141h107q-2 68 -2.5 131.5t-0.5 126.5t-0.5 126.5t-2.5 131.5q-11 1 -21 2.5t-15 1.5q-74 0 -129.5 -26.5t-97.5 -79.5q-42 -55 -52 -118q-4 -26 -4 -54q0 -40 9 -85l8 -34 l-236 -126q-9 68 -9 129q0 541 727 541h93l6 -667h554l-6 275v17q0 139 32 253q34 120 105 212q144 183 389 183q95 0 215 -39l-76 -215q-149 105 -217 105q-45 0 -77.5 -18.5t-49.5 -57.5q-21 -42 -33 -114q-9 -54 -9 -127q0 -25 1 -51v-745q0 -121 3 -199.5t11 -112.5 q16 -74 96 -74q26 0 70 4t104 14l1 -127l-548 -101l-6 777h-555q-1 -23 -0.5 -46.5t-2.5 -46.5v-27q0 -129 -35 -239q-39 -121 -117 -214q-80 -92 -187 -137.5t-240 -45.5q-102 0 -197 35.5t-189 107.5z" />
<glyph unicode="I" horiz-adv-x="1091" d="M-56 2l161 206h80q99 0 130 61q17 35 24 105q6 61 6 152v27l-1 778h-303l160 209h735l-168 -209h-150l5 -684q-2 -144 -44.5 -258t-134.5 -199q46 -1 95 -2.5t97.5 -2t94.5 -1t82 -1.5l-162 -207z" />
<glyph unicode="J" horiz-adv-x="1126" d="M-117 -158l150 193q142 -217 313 -217q106 0 152 85q26 44 37 122q9 61 9 144q0 22 -1 46l-16 1116h-300l156 209h731l-171 -209h-142l12 -955v-19q0 -156 -31 -278q-32 -130 -97.5 -219t-162 -135t-223.5 -46q-196 0 -416 163z" />
<glyph unicode="K" horiz-adv-x="2100" d="M28 121l151 197q74 -91 153 -137t160 -46q232 0 232 385v16l-9 853q-11 1 -23 2.5t-16 1.5q-144 0 -227 -106q-57 -79 -57 -179q0 -37 8 -78l8 -34l-230 -126q-10 68 -10 130q0 85 19 157q33 125 120 210t225.5 129t326.5 44h128l6 -654l359 424v-1q113 135 213.5 203 t193.5 68q36 0 85.5 -16t110.5 -48l-143 -198q-32 22 -57 35t-38 13q-52 0 -123 -43.5t-152 -115.5q-77 -80 -146 -170t-121 -190q60 -78 123.5 -157t124.5 -158q146 -183 257 -278t180 -95q23 0 74.5 29.5t130.5 89.5l2 -157q-75 -80 -148 -119t-139 -39q-74 0 -155.5 44 t-172.5 130q-83 79 -196.5 214.5t-261.5 335.5l2 -44v-17q0 -278 -158 -460q-165 -188 -425 -188q-196 0 -385 143z" />
<glyph unicode="L" horiz-adv-x="1419" d="M-37 2l148 206h72q51 0 86 14t50 43q20 31 28 94.5t9 159.5l-7 513q0 113 33.5 213t99.5 178q69 78 156.5 117.5t196.5 39.5q54 0 120 -20.5t148 -60.5l5 -299h-128q-1 30 -2 48.5t-3 26.5q-32 155 -196 155q-159 0 -159 -285v-14l8 -460q-1 -97 -13.5 -184t-35.5 -144 q-18 -40 -49 -77.5t-69 -70.5q115 -2 228 -4.5t226 -4.5q234 0 434 146l4 -155q-60 -67 -107 -110.5t-81 -62.5q-34 -20 -83 -28t-111 -8z" />
<glyph unicode="M" horiz-adv-x="2454" d="M29 121l150 198q78 -92 156 -138.5t160 -46.5q106 0 166 88q32 44 48 110t18 141q-6 232 -8 457.5t-6 458.5q-10 1 -21 2.5t-14 1.5q-72 0 -131 -30.5t-99 -76.5q-36 -56 -47 -129q-4 -28 -4 -58q0 -49 11 -103l-233 -126q-9 71 -9 135q0 91 19 165q33 126 121 209 q175 161 530 161h100q143 -251 261.5 -500t216.5 -499l408 998l262 32l-7 -364l2 1l10 -817v-16q1 -44 5 -80q6 -42 10 -71q13 -58 88 -58q23 0 69 5t112 14l-3 -128l-536 -113l-16 1177q-100 -240 -199 -481.5t-196 -480.5l-145 -22l-15 65q-37 173 -121 387.5t-211 462.5 v-292v-17q0 -369 -127 -565q-130 -200 -389 -200q-94 0 -190 35.5t-196 107.5z" />
<glyph unicode="N" horiz-adv-x="2468" d="M191 120l151 202q159 -187 316 -187q105 0 167 89q31 43 47 109t18 141q-2 232 -5.5 457t-6.5 458q-12 1 -23.5 2.5t-14.5 1.5q-69 0 -129 -30.5t-101 -76.5q-36 -56 -46 -130q-4 -26 -3 -54q0 -50 12 -106l-232 -126q-10 72 -10 136q-1 84 17 155q32 124 117 210 q85 85 206 127t277 42h117q86 -146 186 -288t213 -288l176 -228h-1q45 -58 76 -96.5t54 -69.5t43 -59t43 -64q-1 121 -2.5 240.5t-4.5 242.5v20q0 143 27 255q29 120 87 204t143 127.5t196 43.5q40 0 90 -11t108 -33l-60 -201q-65 43 -115 65.5t-87 22.5q-94 0 -139 -89.5 t-45 -261.5l9 -752v2l18 -313l-166 -62q-35 69 -114.5 183.5t-193.5 261.5l-334 433q-36 44 -58.5 72t-40.5 51t-35 46.5t-40 58.5q2 -73 2.5 -145t2.5 -147v-21q0 -176 -31 -314q-33 -146 -99.5 -245.5t-164.5 -151t-227 -51.5q-94 0 -189.5 35t-200.5 107z" />
<glyph unicode="O" horiz-adv-x="1660" d="M96 560q-25 117 -25 225q0 268 153 484q212 311 585 311q128 0 239 -41t204 -120q93 -81 152 -187.5t89 -242.5q26 -129 26 -246q0 -77 -11 -147q-28 -180 -132 -331q-210 -302 -589 -302q-262 0 -447 161q-91 81 -153 189t-91 247zM362 905q-2 -34 -3 -69 q0 -128 30 -276q103 -466 411 -466q123 0 211.5 63.5t151.5 194.5q61 136 73 295q3 37 3 76q0 127 -31 273q-50 229 -150 342.5t-255 113.5q-121 0 -213.5 -64t-154.5 -195q-63 -131 -73 -288z" />
<glyph unicode="P" horiz-adv-x="1623" d="M5 866q-7 68 -7 128q0 110 24 194q36 130 133 205q184 147 638 147q160 0 281.5 -19t199.5 -54q82 -38 134.5 -102.5t72.5 -152.5q8 -41 8 -82q1 -28 -3 -56q-10 -70 -45 -140v1q-35 -69 -84 -123.5t-115 -92.5q-152 -82 -367 -82h-49l5 -6q0 -137 -43.5 -246 t-134.5 -195q45 -2 93.5 -3t96 -1.5t91.5 -1t81 -1.5l-153 -207l-712 26l165 206h76q102 0 131 66q16 35 24.5 114.5t10.5 192.5l-13 819q-85 -4 -147 -29.5t-107 -71.5q-68 -73 -67 -180q0 -40 9 -86l10 -43zM817 1416l10 -697l15 40h36q92 0 159.5 29t116.5 88 q49 58 63 130q6 30 6 64q0 45 -11 97q-26 122 -123.5 184t-271.5 65z" />
<glyph unicode="Q" horiz-adv-x="1573" d="M68 96l127 161l189 -66q170 13 300 62t215 133q54 57 94.5 136.5t63.5 169.5q23 93 26 190v26q0 84 -17 166q-17 81 -53 149t-90 123q-50 55 -105.5 81t-115.5 26q-194 0 -294 -198q-53 -102 -66 -219q-5 -37 -5 -77q0 -83 19 -175q53 -242 205 -242q99 0 254 120 l-3 -169q-74 -70 -152 -103.5t-159 -33.5q-146 0 -256 110q-53 54 -87.5 123.5t-54.5 158.5q-18 83 -18 162q0 71 15 138q30 143 128 272q99 130 221 195t276 65q111 0 212 -39t189 -114q188 -156 231 -371q20 -92 20 -177q0 -76 -16 -147q-34 -149 -139 -280 q-92 -118 -236 -206.5t-336 -150.5l582 -219q88 -33 157.5 -50t123.5 -17q62 0 135.5 31t163.5 95l5 -157q-168 -173 -323 -173q-41 0 -109 16.5t-143 45.5z" />
<glyph unicode="R" horiz-adv-x="1860" d="M12 864q-10 76 -10 143q0 266 153 383q184 150 629 150q341 0 499 -67h-2q171 -72 208 -253q9 -42 9 -83q0 -91 -47 -172q-68 -117 -239 -214l303 -375q163 -198 204 -198q29 0 89 59.5t154 183.5l5 -204q-185 -241 -302 -241q-78 0 -173.5 78t-217.5 236l-302 400h-140 q0 -16 -0.5 -32t1.5 -32v-11q1 -127 -43 -231q-46 -108 -137 -194q46 -2 96 -3t98 -1.5t93 -1t83 -1.5l-150 -207l-717 26l161 206h25h13.5t16.5 -2q9 -1 17.5 -1h16.5q83 0 118 61q19 34 27.5 94t9.5 146l-13 894q-84 -4 -146.5 -29.5t-106.5 -71.5q-71 -73 -72 -183 q0 -39 10 -83l10 -43zM821 1416l4 -602h222q113 64 153 158q24 55 24 123q0 46 -11 98q-46 223 -380 223h-12z" />
<glyph unicode="S" horiz-adv-x="1364" d="M61 77l145 192q117 -81 220 -120t195 -39q63 0 110.5 17.5t80.5 50.5q25 35 37 81q6 24 6 49q0 23 -5 48q-23 106 -207 241l-162 127q-97 69 -159.5 120t-87.5 76q-53 64 -77 169q-10 47 -10 92q0 144 105 255q69 71 159.5 107.5t205.5 36.5q72 0 168 -24.5t216 -75.5 l4 -298h-124q-1 7 -2.5 18.5l-3 23t-3 20.5t-1.5 12q-9 40 -33.5 73.5t-62 57t-86 36.5t-104.5 13q-114 0 -182 -70q-30 -34 -40 -74q-5 -20 -5 -42.5t5 -47.5q8 -32 24.5 -63t37.5 -60q29 -30 84.5 -74t133.5 -101l142 -104q121 -88 192 -173t88 -164q8 -42 8 -82 q0 -157 -132 -274q-80 -72 -186.5 -108t-238.5 -36q-205 0 -455 114z" />
<glyph unicode="T" horiz-adv-x="1516" d="M-1 822q-2 38 -2 73q1 137 31 243q38 134 129 222q184 180 519 180h424q140 0 229.5 8.5t131.5 25.5l-1 -1q32 18 53 59.5t24 108.5l210 91q-23 -131 -79 -226.5t-150 -156.5q-183 -118 -443 -118h-73l9 -674v-21q0 -176 -48 -285q-21 -42 -52 -82t-75 -79q45 -2 94 -3 t96 -1.5t91.5 -1t80.5 -1.5l-150 -207l-714 26l161 206l29 -3h57q94 0 126 63h-1q17 38 24.5 113.5t7.5 186.5l-12 763h-214q-302 0 -302 -204q0 -33 8 -71q3 -14 11.5 -41t24.5 -67z" />
<glyph unicode="U" horiz-adv-x="2070" d="M3 870q-10 70 -10 132q-1 238 139 370q176 168 575 168h115q-20 -157 -26 -316t-8 -320q0 -72 2.5 -139t6.5 -125.5t9.5 -106t13.5 -81.5q15 -74 42 -133t63.5 -99.5t81.5 -62t95 -21.5q54 0 103.5 25.5t92 73.5t77 116.5t58.5 154.5l-15 1030l286 35l-7 -364v1 q4 -180 6 -359t5 -356q0 -100 4.5 -162t9.5 -89q9 -38 37 -57t79 -19q25 0 61.5 3.5t93.5 14.5l5 -128l-557 -101l-3 228q-73 -109 -167.5 -164.5t-203.5 -55.5q-97 0 -179.5 34t-151.5 100q-144 132 -189 352q-14 66 -22 173.5t-8 250.5v53q0 106 3 212q4 134 16 251 q-13 1 -19 2.5t-11 1.5q-148 0 -231 -107q-37 -56 -47 -128q-4 -25 -5 -51q0 -51 14 -111z" />
<glyph unicode="V" horiz-adv-x="1890" d="M-200 1425q164 388 442 388q317 0 553.5 -337.5t393.5 -1026.5l175 411q98 224 139 362q32 106 32 161q0 16 -3 28q2 3 -13.5 4t-45.5 1h-117l-1 124h494l-5 -124h-88l-592 -1412l-151 -36l-56 298q-82 383 -173 649.5t-192 413.5q-204 299 -399 299q-90 0 -157.5 -64 t-119.5 -192z" />
<glyph unicode="W" horiz-adv-x="2454" d="M-221 1460q204 353 440 353q309 0 535 -346q93 -143 174.5 -370t148.5 -543l259 938l140 36q12 -38 26 -81.5t29 -88t31 -88.5t31 -83l45 -124q21 -60 42 -118.5t43.5 -126.5t49 -152t59.5 -193q25 82 49.5 161.5t45.5 161.5q73 243 103 392q21 104 21 165q0 26 -4 43 q-5 20 -87 20h-76l5 124h476l2 -124h-97l-433 -1414l-144 -34l-31 161q-53 254 -125 490t-159 455q-75 -268 -153.5 -535t-150.5 -535l-152 -38l-115 632q-109 508 -269.5 769t-365.5 261q-81 0 -152 -58t-131 -173z" />
<glyph unicode="X" horiz-adv-x="1626" d="M-31 81l161 207q57 -71 92 -71q22 0 55 25.5t74.5 72.5t90.5 112t102 145l109 169l-217 399q-63 116 -106.5 172t-72.5 56q-56 0 -168 -195l-54 23l-4 146q58 118 124 178t144 60q99 0 201 -95.5t203 -276.5l112 -207l153 253q99 163 197 244.5t199 81.5q77 0 184 -67 l-161 -214q-31 14 -49.5 21t-28.5 7q-48 0 -126 -84t-189 -251l-97 -144q61 -115 124.5 -225.5t124.5 -224.5q64 -112 113 -174t81 -62q67 0 157 167l56 -24l-1 -128q-53 -108 -121 -161t-148 -53q-99 0 -190 77t-179 237l-178 313q-51 -86 -102 -171t-99 -170h1 q-171 -286 -330 -286q-54 0 -113 29t-124 89z" />
<glyph unicode="Y" horiz-adv-x="1734" d="M-9 1399q70 90 135.5 135.5t128.5 45.5q71 0 133.5 -37.5t109.5 -103.5q45 -63 89 -168t86 -247v1l159 -549q24 -82 45 -125t38 -43q18 0 46 27.5t63 78.5q38 55 74 123t65 143l33 859l293 23l-28 -356v1l-30 -786q-30 -839 -598 -839q-91 0 -189.5 27.5t-207.5 86.5 l147 183q81 -79 160.5 -118t154.5 -39q227 0 244 468l6 159q-72 -146 -149 -219.5t-153 -73.5q-165 0 -256 319l-218 746l1 -1q-81 270 -161 270q-65 0 -215 -168z" />
<glyph unicode="Z" horiz-adv-x="1416" d="M35 1414q132 151 307 151q20 0 54.5 -4.5t85.5 -16.5l-2 3q29 -6 59.5 -14.5t61.5 -14.5q127 -27 263 -27q75 0 149.5 18t149.5 51l1 -204l-797 -1094q35 5 67.5 7t61.5 2q63 0 179 -18l186 -32q14 -2 38 -5t64 -11q33 -6 59 -10t41 -4q139 0 224 155l55 -20l1 -121 q-66 -123 -144.5 -182.5t-168.5 -59.5q-42 0 -101 8.5t-140 24.5l-138 28q-54 12 -104.5 18t-88.5 6q-59 0 -156.5 -21.5t-238.5 -63.5l-2 188l815 1110q-25 -4 -54 -5t-55 -1q-48 0 -103.5 7.5t-126.5 24.5l2 -1l-108 22q-22 7 -39.5 11t-29.5 8q-43 11 -72.5 14t-44.5 3 q-33 0 -84 -21t-120 -67z" />
<glyph unicode="[" horiz-adv-x="606" d="M106 946.5q-1 118.5 0.5 202t6.5 136.5t13 83.5t20.5 41.5t30.5 12h294v-26q-22 -2 -46 -6t-55 -7q-23 -4 -40 -7t-30 -9t-21.5 -18t-14.5 -34v-1296q6 -22 14.5 -33.5t21.5 -18t30 -9t40 -6.5q26 -4 51.5 -6.5t49.5 -4.5v-28h-294q-14 0 -25.5 4t-19.5 25t-13.5 66.5 t-8.5 129.5t-3 212.5t2 316.5q-2 161 -3 279.5z" />
<glyph unicode="\" horiz-adv-x="733" d="M108 1047q-7 32 7 63.5t41 56.5q17 15 30.5 14.5t24 -13.5t17.5 -37t12 -56q17 -123 41 -279t51 -326t56.5 -343.5t56.5 -332.5q5 -26 3.5 -42t-15.5 -16h-3q-9 0 -16 10.5t-12 28.5q-46 205 -86 377.5t-75.5 325.5t-68 292t-64.5 277z" />
<glyph unicode="]" horiz-adv-x="702" d="M100 -59q24 2 49.5 4.5t51.5 6.5q23 4 40 6.5t30 9t21.5 18t14.5 33.5v1296q-6 22 -14.5 34t-21.5 18t-30 9t-40 7q-31 3 -55 7t-46 6v26h294q18 -1 30.5 -12t20.5 -41.5t13 -83.5t6.5 -136.5t0.5 -202t-3 -279.5q2 -188 2 -316.5t-3 -212.5t-8.5 -129.5t-13.5 -66.5 t-19.5 -25t-25.5 -4h-294v28z" />
<glyph unicode="^" horiz-adv-x="862" d="M452 923q155 114 222 197l98 62q33 -113 98 -206l-87 -53q-54 61 -90 159q-41 -50 -119 -129q-3 -4 -21 -22z" />
<glyph unicode="_" horiz-adv-x="737" d="M52 -94l19 94h595l-18 -94h-596z" />
<glyph unicode="`" horiz-adv-x="212" d="M46 1049q-3 37 74 -47q35 -80 56 -151q7 -52 -4 -46q-22 32 -69.5 122t-56.5 122z" />
<glyph unicode="a" horiz-adv-x="1587" d="M88 564q30 146 118 290q91 147 226.5 221t313.5 74q35 0 77.5 -1t87 -3t88.5 -4.5t82 -5.5l-7 -328v2l5 -491q2 -57 5 -93.5t5 -50.5q4 -31 34 -31q85 0 286 290l5 -209q-182 -248 -367 -248q-175 0 -214 181q-7 26 -9 71q-2 32 -1 70v32l-5 84q-27 -81 -64 -147.5 t-80 -123.5q-134 -167 -283 -167q-240 0 -301 292q-17 77 -17 153q0 72 15 143zM338 532q-2 -30 -3 -59q0 -88 16 -163q25 -127 87 -127q70 0 189 167q60 90 106.5 187.5t81.5 211.5l-3 198q-61 22 -112 32.5t-108 10.5q-79 0 -133.5 -53t-83.5 -156q-31 -127 -37 -249z" />
<glyph unicode="b" horiz-adv-x="1302" d="M159 1l8 331l1 -2l-9 685v18q0 171 37 309q39 146 120 248q82 106 197 158t261 52q53 0 113 -9t132 -29l-148 -193q-72 29 -125.5 44t-92.5 15q-141 0 -190 -102h1q-45 -99 -45 -359q0 -31 1 -65l4 -374q27 78 63 145t79 124q69 84 139.5 123.5t148.5 39.5 q238 0 301 -291q17 -79 16 -157q0 -70 -13 -140q-29 -146 -117 -290q-92 -146 -223.5 -220.5t-311.5 -74.5q-25 0 -59 1t-72 3zM428 385l2 -196q58 -23 112.5 -33t108.5 -10q79 0 133.5 54.5t83.5 158.5q30 127 38 247q2 32 2 63q0 85 -15 160q-27 127 -91 127 q-35 0 -81 -43t-105 -128q-60 -87 -106 -186.5t-82 -213.5z" />
<glyph unicode="c" horiz-adv-x="1157" d="M105 360q-18 82 -18 160q0 207 126 389q88 128 201 189.5t251 61.5q57 0 126 -15t150 -48l-17 -301h-113l-6 48q-2 22 -2.5 38t-2.5 27q-19 105 -179 105q-155 0 -225 -172q-43 -102 -42 -234q0 -100 24 -217q54 -237 220 -237q184 0 447 220l3 -166 q-149 -115 -276 -173.5t-237 -58.5q-156 0 -274 105q-120 107 -156 279z" />
<glyph unicode="d" horiz-adv-x="1415" d="M118 269q-15 71 -15 144q0 118 39 241q63 201 201 339q46 46 97.5 77t105.5 46q51 15 124.5 23.5t168.5 9.5q9 90 24.5 164t35.5 124q22 54 58 103.5t84 96.5q85 82 189 122.5t228 40.5q51 0 112 -9t133 -29l-144 -191q-75 29 -129.5 43t-90.5 14q-72 0 -121 -25t-72 -77 q-26 -55 -38 -160q-10 -90 -10 -219v-44l7 -785q2 -58 3.5 -93t4.5 -50q8 -32 36 -32q89 0 289 290l1 -209q-90 -126 -180.5 -187t-184.5 -61q-173 0 -214 181q-5 26 -8 70.5t-3 102.5l-2 83q-27 -81 -63.5 -148t-81.5 -123q-132 -166 -283 -166q-118 0 -194.5 73 t-106.5 220zM366 532q-2 -29 -2 -56q0 -89 16 -166q25 -127 86 -127q73 0 187 167q62 90 108 189t82 211l-4 198q-57 22 -111.5 32t-109.5 10q-79 0 -133 -53t-83 -156q-30 -127 -36 -249z" />
<glyph unicode="e" horiz-adv-x="1147" d="M105 360q-18 80 -18 158q0 203 121 387q84 131 190.5 194.5t236.5 63.5q51 0 97 -17.5t82.5 -49.5t63 -77t38.5 -100q9 -40 9 -79q0 -59 -21 -112q-34 -88 -123 -160q-81 -66 -186.5 -103.5t-232.5 -40.5l2 -15q29 -129 87 -194t151 -65q88 0 199 54t247 163v-159 q-143 -115 -272.5 -173.5t-243.5 -58.5q-78 0 -145 26.5t-130 82.5q-116 106 -152 275zM343 549q94 12 163.5 40.5t112.5 70.5t59 98q8 29 8 62q0 29 -7 60q-26 121 -105 121q-54 0 -98 -35.5t-77 -108.5q-35 -69 -49 -145q-9 -49 -10 -102q0 -30 3 -61z" />
<glyph unicode="f" horiz-adv-x="868" d="M-334 -639l150 204q57 -21 109.5 -32.5t98.5 -11.5q64 0 108 22t70.5 69t35.5 121q7 48 7 110q0 32 -2 68l-48 1094h-254l95 135h157q0 283 168 472q87 96 200 142t254 46q45 0 101.5 -8t125.5 -24l-152 -209q-63 35 -114 52t-95 17q-134 0 -183 -78q-24 -41 -36 -118 q-10 -67 -10 -158v-31l2 -103h403l-108 -152q-70 9 -136 13t-130 4h-25l33 -828q2 -41 2 -80q0 -151 -28 -274q-35 -155 -111 -263q-155 -222 -463 -222q-42 0 -97 6t-128 17z" />
<glyph unicode="g" horiz-adv-x="1300" d="M8 -385q-6 29 -6 58q0 81 44 161q59 109 207 214q-109 73 -143 236q-17 79 -17 157q0 72 15 143q30 145 121 288q184 277 538 277q17 0 49.5 -1t74.5 -2.5t91.5 -4t102.5 -5.5l-7 -329l2 -231q4 -178 9 -265q9 -154 9 -268v-33q-2 -124 -18 -195h1q-13 -71 -48 -140.5 t-92 -136.5q-177 -200 -455 -200q-91 0 -171.5 19.5t-144.5 53.5q-67 39 -108 90t-54 114zM232 -306q19 -83 117 -144q51 -33 109 -49t123 -16q160 0 225 140q56 118 56 330q0 38 -2 80l-28 396q-66 -186 -175 -297t-248 -135q-101 -83 -145 -160q-35 -60 -35 -114 q0 -16 3 -31zM350 455q3 -77 14 -138q24 -111 82 -111q89 0 181.5 135.5t193.5 407.5l-3 196q-59 24 -110 34.5t-103 10.5q-57 0 -102.5 -25t-72.5 -78q-52 -94 -74 -270q-6 -65 -6 -125v-37z" />
<glyph unicode="h" horiz-adv-x="1407" d="M148 1015v32q0 167 38 297q42 142 119 246q82 106 197 158t263 52q51 0 110.5 -9t131.5 -29l-143 -193q-72 29 -126 44t-93 15q-70 0 -118 -25t-72 -77q-27 -54 -37 -160q-9 -89 -8 -215v-49l3 -378q29 81 67.5 149.5t84.5 125.5q66 82 136.5 121.5t143.5 39.5 q192 0 238 -210q6 -34 10.5 -70.5t5.5 -78.5l4 -483q2 -58 5 -94t5 -50q5 -31 34 -31q45 0 113.5 71t165.5 212l10 -202q-91 -126 -181.5 -187t-185.5 -61q-172 0 -211 181q-12 54 -12 173l-9 485v14q0 48 -6 75q-5 24 -15.5 38t-25.5 14q-85 0 -177.5 -145.5t-194.5 -434.5 q1 -42 1 -90v-97t0.5 -97t1.5 -91l-266 -15l3 346l1 -2z" />
<glyph unicode="i" horiz-adv-x="1003" d="M5 997l509 179v-858q2 -58 6 -93t8 -50q7 -32 36 -32q83 0 284 290l3 -209q-178 -248 -364 -248q-172 0 -212 181q-8 29 -14.5 70.5t-6.5 100.5q1 147 1 254q0 267 -4 280q-18 54 -54 54q-20 0 -66 -13t-118 -35zM195 1373l61 226l324 243l-69 -289z" />
<glyph unicode="j" horiz-adv-x="702" d="M-353 -626l145 196q134 -61 223 -61q113 0 170.5 102t59.5 288l-12 777v-2q-3 72 -6.5 119.5t-7.5 68.5q-11 54 -46 54q-20 0 -66 -13t-117 -35l-5 129l513 179l-10 -369v2l11 -616q1 -31 1 -60q0 -93 -8 -171q-9 -102 -24 -171q-18 -72 -51.5 -136t-79.5 -121 q-170 -196 -454 -196q-47 0 -106 9.5t-130 26.5zM161 1235l61 226l335 245l-78 -291z" />
<glyph unicode="k" horiz-adv-x="1340" d="M157 1015v26q1 170 37 302q40 142 118 247q162 210 456 210q52 0 113 -9t132 -29l-142 -193q-144 59 -218 59q-61 0 -104.5 -21t-73.5 -60l-1 1q-17 -23 -28.5 -55t-15.5 -68q-3 -23 -6.5 -60.5t-6 -104t-4.5 -168.5t-3 -255q24 55 56 101.5t71 88.5q69 66 142.5 99.5 t155.5 33.5q196 0 236 -191q9 -44 9 -84q0 -39 -8 -75q-18 -73 -69.5 -131.5t-136 -101t-199.5 -67.5q163 -174 270 -257t165 -83q74 0 227 176l4 -173q-86 -100 -162.5 -148.5t-140.5 -48.5q-105 0 -234 102q-55 43 -147.5 132t-223.5 228q1 -109 2 -221.5t3 -215.5 l-269 -15l5 346l1 -2q-5 173 -6 343.5t-4 341.5zM436 588q182 4 301 105q94 82 94 184q0 28 -7 57q-13 69 -63 69q-72 0 -152 -106t-173 -309z" />
<glyph unicode="l" horiz-adv-x="990" d="M97 332v683v34q1 164 35 294q38 143 118 247q166 210 460 210q106 0 242 -38l-142 -193q-141 59 -219 59q-70 0 -118 -26t-71 -76q-11 -28 -20.5 -71t-15.5 -97q-6 -56 -10 -120q-3 -50 -2 -104v-32q2 -194 5 -392t6 -392q0 -58 2.5 -94t4.5 -50q6 -31 35 -31 q28 0 76.5 42.5t124.5 125.5l98 110l4 -190q-200 -255 -379 -255q-169 0 -203 130q-31 119 -31 210v16z" />
<glyph unicode="m" horiz-adv-x="2170" d="M-74 914q86 125 178.5 185.5t188.5 60.5q170 0 210 -179q5 -29 8.5 -71.5t4.5 -100.5l1 -84q29 82 66 151t80 124q61 82 129 121t136 39q41 0 79 -16t69.5 -44.5t54 -67.5t32.5 -85q5 -32 9 -68q3 -28 3 -58v-18l1 -63q27 74 59.5 137.5t73.5 118.5h-2q62 85 127.5 124.5 t137.5 39.5q206 0 252 -215q6 -31 10 -67q3 -28 2 -59v-18l5 -483q2 -58 5.5 -94t5.5 -50q5 -15 12.5 -23t22.5 -8q78 0 283 292l6 -211q-91 -126 -181.5 -187t-184.5 -61q-173 0 -214 181q-5 27 -8 70t-5 103l-8 484q-1 35 -1.5 57t-2.5 33q-5 24 -16 38t-27 14 q-77 0 -163 -144.5t-186 -434.5l6 -376l-254 -15l-14 827q-2 32 -4 55t-4 34q-5 26 -15.5 40t-23.5 14q-29 0 -71.5 -43.5t-93.5 -122.5q-48 -82 -96 -189.5t-87 -231.5v-368l-267 -15l7 346l1 -2l-8 492q-1 55 -2 91t-3 51q-5 14 -13.5 23t-20.5 9q-43 0 -114 -74 t-171 -219z" />
<glyph unicode="n" horiz-adv-x="1855" d="M89 914q87 124 179 185t187 61q173 0 209 -178q8 -28 9.5 -71.5t1.5 -101.5v-87q36 81 74 150.5t84 126.5q131 161 278 161q191 0 238 -210q13 -68 16 -149l3 -483q3 -58 4.5 -94t5.5 -50q6 -31 37 -31q82 0 283 290l6 -209q-180 -248 -369 -248q-171 0 -211 181 q-12 54 -22 173v485q0 110 -16 125.5t-30 15.5q-85 0 -176.5 -145.5t-204.5 -434.5v-375l-256 -15l-1 836q0 56 -0.5 91t-4.5 51q-9 32 -36 32q-40 0 -111 -74t-171 -219z" />
<glyph unicode="o" horiz-adv-x="1235" d="M106 360q-18 83 -18 161q0 206 125 387q87 128 196.5 190t243.5 62q151 0 274 -108q119 -110 153 -270q18 -88 19 -170q0 -65 -12 -126q-26 -138 -111 -262q-88 -126 -202 -187t-254 -61q-142 0 -264 112q-117 111 -150 272zM352 638q-1 -16 -1 -33q0 -91 21 -190 q64 -293 232 -293q66 0 112.5 44t79.5 129q35 93 39 197q1 15 1 31q0 92 -21 195q-32 152 -90 225t-143 73q-125 0 -191 -179q-35 -93 -39 -199z" />
<glyph unicode="p" horiz-adv-x="1407" d="M-334 -628l144 193q63 -27 119.5 -41.5t107.5 -14.5q219 0 219 373v23l-10 771q-2 69 -5.5 117.5t-8.5 68.5q-9 54 -45 54q-21 0 -67.5 -13t-118.5 -35l-4 129l515 179l-9 -373l1 2l2 -71q26 77 62.5 142t78.5 121q69 84 139.5 123.5t145.5 39.5q244 0 305 -291 q17 -84 17 -166q0 -73 -14 -143q-29 -149 -126 -291q-188 -284 -476 -284q-16 0 -47.5 3t-72.5 8h-1l-7 2q-7 -159 -52 -282t-125 -207t-193 -127.5t-257 -43.5q-38 0 -91.5 8.5t-125.5 25.5zM509 385l3 -196q59 -23 113.5 -33t108.5 -10q78 0 131.5 54.5t84.5 158.5 q30 127 37 247q2 30 2 58q0 88 -17 165q-25 127 -89 127q-35 0 -82 -45t-101 -126q-58 -86 -107.5 -188.5t-83.5 -211.5z" />
<glyph unicode="q" horiz-adv-x="1429" d="M222 564q29 147 113 290q92 146 226.5 220.5t311.5 74.5q30 0 68.5 -1t82 -3t89 -4.5t88.5 -5.5l-8 -328v2l13 -890q2 -103 6.5 -172.5t11.5 -106.5q13 -56 52 -56q54 0 191 49l4 -141l-530 -169l9 373l-1 -1l-8 705q-29 -74 -63 -138.5t-76 -118.5q-65 -85 -135 -126 t-145 -41q-237 0 -299 292q-15 75 -15 150q0 73 14 146zM484 308q26 -125 86 -125q46 0 99 53t111 162q69 129 107.5 217t50.5 136l-2 -3l-2 200q-100 42 -217 42q-78 0 -129 -52t-80 -157v1q-42 -160 -42 -300q0 -92 18 -174z" />
<glyph unicode="r" horiz-adv-x="1401" d="M47 902q93 132 185 196.5t182 64.5q177 0 216 -194q18 -77 18 -168l2 -73q29 77 65.5 143.5t82.5 124.5q69 84 139.5 124t142.5 40q78 0 177 -50l-116 -231q-86 51 -118 51q-176 0 -369 -545l7 -384l-270 -15l-4 828v20q1 24 -1 46q-2 30 -8 54q-7 29 -16 42.5t-24 13.5 q-47 0 -117.5 -72.5t-164.5 -223.5z" />
<glyph unicode="s" horiz-adv-x="988" d="M46 53l143 186q166 -105 287 -105q35 0 63.5 9t48 25t27 38t1.5 48q-5 29 -40.5 71t-99.5 99l-114 103q-83 75 -131.5 150t-60.5 128q-6 31 -6 60q0 41 12 81q21 66 75 122q55 56 129 84t161 28q46 0 107.5 -10t138.5 -35l3 -270h-115l-10 50q1 10 0 17q-20 102 -165 102 q-141 0 -141 -92q0 -14 3 -30q15 -66 148 -189v1l103 -110q85 -79 133.5 -145t60.5 -123q7 -30 7 -59q0 -111 -104 -201q-125 -110 -315 -110q-132 0 -349 77z" />
<glyph unicode="t" horiz-adv-x="1202" d="M48 1005l93 135h159l-2 271l265 67l1 -338h401l-105 -152q-73 9 -134 13t-109 4h-53l-1 -656q-1 -24 -1 -44q0 -25 1 -45q2 -36 7 -54q5 -24 16 -35.5t33 -11.5q94 0 292 203l8 -178q-169 -208 -358 -208q-198 0 -244 215q-9 37 -12.5 83.5t-3.5 100.5l3 630h-256z" />
<glyph unicode="u" horiz-adv-x="1477" d="M-80 914q85 125 177 185.5t187 60.5q174 0 210 -178q12 -49 12 -145v-28l7 -490l2 1q1 -32 2.5 -53.5t3.5 -33.5q12 -50 36 -50q58 0 168 168q56 90 101 191t80 219l-1 375l271 16l-9 -345v2l7 -491q1 -113 8 -144q6 -31 33 -31q45 0 115.5 72t172.5 218l3 -209 q-92 -126 -181 -187t-183 -61q-175 0 -216 181q-12 48 -12 136v37l-2 83q-160 -437 -407 -437q-97 0 -155 54.5t-81 162.5q-5 29 -9.5 64t-6.5 75l-8 490q0 55 -1 91t-4 51q-5 14 -13 23t-22 9q-41 0 -111.5 -74t-169.5 -219z" />
<glyph unicode="v" horiz-adv-x="1493" d="M-81 905q68 130 144 192.5t161 62.5q369 0 559 -865l18 33q135 216 191 368q40 111 40 190q0 30 -6 56q-16 82 -136 191l284 30q44 -47 67 -88t29 -74q7 -30 7 -61q0 -69 -34 -146q-25 -50 -79 -143t-140 -226l-274 -424l-146 -33l-31 175v-1q-40 194 -90.5 345 t-108.5 262q-54 105 -106.5 156t-102.5 51q-105 0 -189 -234l-55 21z" />
<glyph unicode="w" horiz-adv-x="2004" d="M-68 894q63 136 141 201t169 65q168 0 295.5 -206.5t216.5 -623.5v-1q96 213 134 411q26 136 26 267q0 58 -5 116l130 32q112 -213 191 -414t126 -397q40 78 71 155.5t51 162.5q28 102 36 176q4 35 4 65q0 34 -5 61q-7 27 -30 69.5t-67 102.5l287 16q20 -36 34 -65 t20 -51q4 -21 4 -45q0 -82 -46 -209q-31 -84 -82.5 -192.5t-123.5 -251.5l-42 -72l-135 -264l-141 -34l-31 160q-35 166 -71.5 303.5t-79.5 255.5q-61 -217 -130.5 -387.5t-148.5 -295.5l-147 -36q-4 25 -9.5 55t-11.5 61.5t-12 61.5l-11 55q-48 222 -92 373t-84 236 q-72 149 -172 149q-102 0 -199 -240l-56 22z" />
<glyph unicode="x" horiz-adv-x="1504" d="M107 14l68 240q32 -16 57 -24t45 -8q137 0 300 262l36 57l-192 298q-31 52 -55.5 78t-38.5 26q-44 0 -129 -160l-57 20v151q115 206 234 206t253 -207l137 -212l26 42l-1 -1q108 190 213 284t205 94q28 0 66 -12t84 -38l-79 -232q-33 18 -57.5 26t-40.5 8 q-148 0 -308 -262l-30 -42l213 -329q67 -105 101 -105q55 0 149 146l51 -19l4 -143q-64 -93 -128.5 -137.5t-130.5 -44.5q-130 0 -246 182l-163 256l-35 -63q-110 -189 -206.5 -282t-187.5 -93q-24 0 -62 9t-95 29z" />
<glyph unicode="y" horiz-adv-x="1469" d="M-39 936q60 114 128.5 169t143.5 55q101 0 161 -86q27 -38 59.5 -115.5t73.5 -197.5l112 -330l-1 2q25 -76 45.5 -114.5t32.5 -38.5q23 0 51 41t62 118q10 17 44.5 106.5t96.5 255.5q1 81 4.5 169t4.5 166l273 16l-26 -351q-5 -174 -11 -351.5t-13 -352.5 q-8 -180 -52 -321.5t-122.5 -238.5t-190.5 -148t-257 -51q-110 0 -245 48l145 190q63 -32 120 -49.5t111 -17.5q121 0 172 89q26 48 41.5 133t19.5 213l12 437q-25 -65 -49 -118.5t-51 -100.5l-1 3q-93 -165 -176 -165q-48 0 -88.5 23.5t-70.5 71.5q-29 42 -61.5 116 t-70.5 180l-126 390q-64 187 -103 187q-43 0 -146 -177l-49 24z" />
<glyph unicode="z" horiz-adv-x="1288" d="M107 774v183q183 195 354 195q25 0 51.5 -2.5t57.5 -6.5l88 -10q32 -5 61 -6.5t52 -1.5q134 0 278 54l-23 -232l-591 -703h12q37 0 67 -1.5t52 -3.5l71 -10q32 -5 66.5 -8t63.5 -3q109 0 206 51t186 152l3 -194q-177 -240 -375 -240q-25 0 -61 2.5t-83 8.5l-73 7h1 q-32 5 -70.5 6.5t-82.5 1.5q-75 0 -148.5 -14.5t-151.5 -39.5l24 225l635 725q-23 1 -62 5t-86 9q-31 3 -63.5 6.5t-61.5 4.5q-32 6 -56 8t-44 2q-131 0 -297 -170z" />
<glyph unicode="{" horiz-adv-x="820" d="M134 557h2l-2 1h5l5 1h2q32 10 61 63q48 86 90 117q-7 2 -20 5q-71 27 -71 101q0 20 7 38q27 72 103 72q18 0 35 -6q15 -5 28 -16q-4 19 -4 40q0 38 16 94t16 74q0 26 -16 44q19 -15 109 -3.5t179.5 86.5t142.5 171q0 -48 -15.5 -95.5t-38.5 -94.5q-121 -73 -239 -206 q-195 -204 -198 -484v-3q3 -280 198 -484q118 -133 239 -206q23 -47 38.5 -94.5t15.5 -95.5q-53 96 -142.5 171t-179.5 87q-90 11 -109 -4q16 18 16 44q0 18 -16 74t-16 94q0 21 4 40q-13 -11 -28 -16q-17 -6 -35 -6q-76 0 -103 72q-7 18 -7 38q0 74 71 101q13 3 20 5 q-42 31 -90 117q-29 53 -61 63h-2l-5 1h-5zM264 265q0 -16 12 -27.5t28 -11.5q36 0 36 38t-38 38q-26 0 -35 -23q-3 -6 -3 -14zM264 850q0 -8 3 -14q9 -23 35 -23q38 0 38 38t-36 38q-16 0 -28 -11.5t-12 -27.5zM359 556v3q2 268 143 430.5t248 216.5q-2 -6 -7.5 -19.5 t-12.5 -28t-13 -27.5t-9 -17q-290 -205 -292 -556q2 -352 292 -557q3 -5 9 -17.5t13 -27t12.5 -28t7.5 -19.5q-107 54 -248 217q-141 162 -143 430z" />
<glyph unicode="|" horiz-adv-x="610" d="M240 -306v1519h130v-1519h-130z" />
<glyph unicode="}" horiz-adv-x="871" d="M1 -324q0 48 15.5 95.5t38.5 94.5q121 73 239 206q195 204 198 484v3q-3 280 -198 484q-118 133 -239 206q-23 47 -38.5 94.5t-15.5 95.5q53 -96 142.5 -171t179.5 -86.5t109 3.5q-16 -18 -16 -44q0 -18 16 -74t16 -94q0 -21 -4 -40q13 11 28 16q17 6 35 6q76 0 103 -72 q7 -18 7 -38q0 -74 -71 -101q-13 -3 -20 -5q42 -31 90 -117q29 -53 61 -63h2l5 -1h5l-2 -1h2h-5l-5 -1h-2q-32 -10 -61 -63q-48 -86 -90 -117q7 -2 20 -5q71 -27 71 -101q0 -20 -7 -38q-27 -72 -103 -72q-18 0 -35 6q-15 5 -28 16q4 -19 4 -40q0 -38 -16 -94t-16 -74 q0 -26 16 -44q-19 15 -109 4q-90 -12 -179.5 -87t-142.5 -171zM73 -91q1 6 7 19.5t13 28t13 27t9 17.5q290 205 292 557q-2 351 -292 556q-3 4 -9 17t-13 27.5t-13 28t-7 19.5q107 -54 248 -216.5t143 -430.5v-3q-2 -268 -143 -430q-141 -163 -248 -217zM483 264 q0 -38 36 -38q16 0 28 11.5t12 27.5q0 8 -3 14q-9 23 -35 23q-38 0 -38 -38zM483 851q0 -38 38 -38q26 0 35 23q3 6 3 14q0 16 -12 27.5t-28 11.5q-36 0 -36 -38z" />
<glyph unicode="~" horiz-adv-x="932" d="M139 315q62 245 234 245q54 0 173 -69l80 -46q99 -56 150 -56q82 0 142 139h45q-71 -235 -238 -235q-67 0 -170 59l-79 46q-112 65 -150 65q-84 0 -143 -148h-44z" />
<glyph unicode="&#xa1;" horiz-adv-x="680" d="M228 0l28 1079h166l30 -1079h-224zM238 1278v211h204v-211h-204z" />
<glyph unicode="&#xa2;" horiz-adv-x="693" d="M142 355q0 104 100 179.5t250 87.5l35 177h45l-35 -177q100 -5 178 -21l-26 -130h-45q0 6 1 17q3 21 3 29q0 55 -120 61l-69 -349q108 0 202 51l-11 -51q-106 -53 -202 -53l-39 -194h-44l39 194q-262 19 -262 179zM272 383q0 -128 143 -151l69 346q-212 -31 -212 -195z " />
<glyph unicode="&#xa3;" horiz-adv-x="874" d="M17 0l92 88h13q107 0 150.5 48.5t74.5 206.5l9 48h-160l9 45h160l13 63q29 143 118.5 222t221.5 79q79 0 174 -35l-34 -179h-50l2 12q2 10 2 22q0 126 -133 126q-65 0 -94.5 -36t-49.5 -141l-27 -133h240l-9 -45h-240l-7 -32q-19 -94 -64.5 -151t-152.5 -120h205 q137 0 199 14.5t140 64.5l-11 -54q-73 -78 -142.5 -105.5t-195.5 -27.5l-28 1z" />
<glyph unicode="&#xa4;" horiz-adv-x="932" d="M120 184l166 138q-43 75 -43 148q0 143 126 273l-110 139l38 31l110 -138q114 77 227 77q110 0 194 -77l166 138l25 -31l-167 -139q43 -75 43 -147q0 -141 -126 -274l110 -138l-38 -31l-109 139q-116 -78 -228 -78q-110 0 -194 78l-165 -139zM320 485q0 -85 56.5 -140.5 t142.5 -55.5q116 0 207.5 88.5t91.5 201.5q0 87 -56 142.5t-142 55.5q-118 0 -209 -89t-91 -203z" />
<glyph unicode="&#xa5;" horiz-adv-x="965" d="M106 534q66 116 162.5 190.5t183.5 74.5q160 0 160 -281l-1 -46q125 327 360 327q74 0 129 -34l-84 -112q-49 31 -101 31q-173 0 -264 -231h184l-9 -44h-183l-9 -40q-7 -34 -25 -68h196l-9 -44h-211q-66 -119 -196 -166l235 -14l-90 -95l-378 18l91 99q22 -2 32 -2 q136 0 198 160h-205l8 44h209q6 45 10 108h-198l9 44h189v17q0 97 -35.5 161t-88.5 64t-125 -57t-111 -129z" />
<glyph unicode="&#xa6;" horiz-adv-x="355" d="M86 -213l117 586h98l-117 -586h-98zM238 551l117 586h98l-116 -586h-99z" />
<glyph unicode="&#xa7;" horiz-adv-x="932" d="M107 -153l125 73q116 -98 249 -98q83 0 140.5 50.5t57.5 122.5q0 53 -33.5 85.5t-132.5 79.5l-73 33q-193 90 -193 216q0 119 162 243q-81 65 -81 163q0 123 112 200.5t287 77.5q87 0 206 -33l-36 -181h-44q4 25 4 37q0 123 -205 123q-92 0 -151.5 -52t-59.5 -134 q0 -55 25 -78.5t147 -88.5l61 -34q180 -99 180 -208q0 -125 -151 -244q98 -64 98 -160q0 -115 -116.5 -193t-287.5 -78q-153 0 -290 78zM355 456q0 -74 119 -130l97 -47q36 -16 96 -50q80 90 80 165q0 76 -119 133l-70 35q-63 31 -113 63q-90 -80 -90 -169z" />
<glyph unicode="&#xa8;" horiz-adv-x="862" d="M408 1033l112 86l87 -116l-112 -80zM752 1035l114 84l85 -115l-110 -81z" />
<glyph unicode="&#xa9;" horiz-adv-x="1244" d="M166 533q0 232 164.5 396t394.5 164q233 0 397 -164t164 -396t-164 -396t-397 -164q-230 0 -394.5 164t-164.5 396zM211 533q0 -213 151 -364t363 -151q214 0 365 151t151 364t-151 364t-365 151q-212 0 -363 -151t-151 -364zM436 462q0 163 105 272.5t264 109.5 q91 0 198 -30l-36 -139l-52 9l8 82q-69 32 -131 32q-104 0 -176 -98t-72 -238q0 -191 178 -191q101 0 180 36l-12 -61q-105 -33 -186 -33q-124 0 -196 66.5t-72 182.5z" />
<glyph unicode="&#xaa;" horiz-adv-x="1010" d="M114 839q0 104 43 169.5t123 103.5q75 36 189 51t239 21v19q0 52 -16.5 84t-48.5 50q-29 17 -72 22.5t-89 5.5q-78 0 -158.5 -23.5t-119.5 -37.5h-15v170q44 13 131.5 29t162.5 16q192 0 291.5 -76.5t99.5 -248.5v-628h-166v91q-19 -15 -51 -38.5t-63 -37.5 q-41 -19 -80.5 -29.5t-109.5 -10.5q-124 0 -207 83.5t-83 214.5zM286 849q0 -75 44 -114t131 -39q76 0 136.5 33t110.5 73v243q-65 -4 -151 -12t-137 -23q-60 -17 -97 -55.5t-37 -105.5z" />
<glyph unicode="&#xab;" horiz-adv-x="721" d="M178 417q0 99 48 204t104 150q22 18 38.5 29t30.5 14q21 5 18 -15l-26 -31q-106 -128 -106 -375q0 -234 100 -357q32 -39 32 -48q0 -5 -4.5 -5.5t-9.5 -0.5q-51 0 -138 122t-87 313zM391 397q0 72 14.5 124.5t54.5 132.5q74 129 123 129q9 -9 -10 -47q-33 -72 -55 -158 t-22 -190q0 -156 46.5 -264t49.5 -114q0 -10 -12 -10q-58 0 -120 127q-34 71 -51.5 133t-17.5 137z" />
<glyph unicode="&#xac;" horiz-adv-x="932" d="M177 510l16 80h782l-69 -342h-92l52 262h-689z" />
<glyph unicode="&#xad;" horiz-adv-x="867" d="M156 313v122h576v-122h-576z" />
<glyph unicode="&#xae;" horiz-adv-x="897" d="M261 764q0 132 93.5 226t225.5 94q134 0 227 -94t93 -226t-93.5 -225.5t-226.5 -93.5q-132 0 -225.5 93.5t-93.5 225.5zM301 764q0 -114 82.5 -197t196.5 -83q115 0 197.5 83t82.5 197t-82.5 197t-197.5 83q-114 0 -196.5 -83t-82.5 -197zM394 596l9 43h53l55 276h-53 l8 44h132q153 0 153 -84q0 -75 -101 -125l35 -111h62l-9 -43h-97l-50 141h-62l-28 -141h-107zM538 782h36q123 0 123 84q0 49 -90 49h-43z" />
<glyph unicode="&#xaf;" horiz-adv-x="1118" d="M-16 1259v130h1150v-130h-1150z" />
<glyph unicode="&#xb0;" horiz-adv-x="409" d="M271 968q0 53 36.5 89t87.5 36q52 0 88 -36t36 -89q0 -52 -36 -88t-88 -36q-51 0 -87.5 36t-36.5 88zM315 968q0 -32 24 -56t56 -24t55.5 24t23.5 56t-23.5 56t-55.5 24t-56 -24t-24 -56z" />
<glyph unicode="&#xb1;" horiz-adv-x="932" d="M76 0l16 80h781l-15 -80h-782zM174 493l15 80h352l55 279h80l-55 -279h350l-15 -80h-351l-56 -280h-80l56 280h-351z" />
<glyph unicode="&#xb2;" horiz-adv-x="596" d="M187 516l20 101q155 95 247.5 186.5t92.5 148.5q0 94 -84 94q-111 0 -132 -118h-53l26 131q96 34 180 34q190 0 190 -134q0 -72 -49.5 -117t-327.5 -225h310l-20 -101h-400z" />
<glyph unicode="&#xb3;" horiz-adv-x="596" d="M185 545l72 75q80 -64 161 -64q42 0 72.5 31t30.5 74q0 115 -176 115q-22 0 -44 -3l30 86q19 1 34 1q47 0 101 -11q81 37 81 112q0 85 -93 85q-89 0 -112 -105h-53l22 116q87 36 173 36q178 0 178 -109q0 -91 -142 -155q105 -39 105 -136q0 -77 -70.5 -130t-176.5 -53 q-89 0 -193 35z" />
<glyph unicode="&#xb4;" horiz-adv-x="256" d="M62 848q21 71 56 151q77 84 74 47q-9 -32 -56.5 -122t-69.5 -122q-11 -6 -4 46z" />
<glyph unicode="&#xb5;" horiz-adv-x="992" d="M100 -302l55 226l115 576q12 60 12 111q0 82 -76 171l162 8q59 -50 59 -167q0 -47 -18 -142l-54 -268q-8 -37 -8 -52q0 -55 44 -55q55 0 162.5 123t199.5 290l52 263l153 8l-53 -221l-71 -356q-16 -81 -16 -107q0 -53 43 -53q70 0 214 165l-13 -67q-157 -169 -283 -169 q-104 0 -104 109q0 37 17 122l35 178h-10q-200 -391 -405 -391l-57 -284z" />
<glyph unicode="&#xb6;" horiz-adv-x="932" d="M241 747q0 129 105.5 221t281.5 117l32 159h44l-31 -159l30 1q41 0 93 -6l32 164h45l-34 -173q52 -14 109 -35l-10 -48q-40 17 -108 36l-88 -438q52 17 127 57l-10 -57q-65 -37 -127 -56l-154 -769h-44l150 753q-87 -18 -128 -18l-147 -735h-44l146 735q-270 46 -270 251 zM567 553q58 0 128 15l92 463q-49 9 -83 9q-13 0 -40 -1z" />
<glyph unicode="&#xb7;" horiz-adv-x="724" d="M243 832v285h239v-285h-239z" />
<glyph unicode="&#xb8;" horiz-adv-x="862" d="M237 -277l55 76q34 -22 60 -22q64 0 64 52q0 59 -98 59l76 112h62l-42 -64q71 -22 71 -83q0 -51 -56.5 -94t-125.5 -43q-31 0 -66 7z" />
<glyph unicode="&#xb9;" horiz-adv-x="596" d="M210 516l8 44l61 3q49 4 58.5 15t24.5 79l56 281q5 22 5 40q0 26 -68 35l-45 8l9 45l254 27l-86 -436q-11 -50 -11 -68q0 -19 56 -26l59 -3l-9 -44h-372z" />
<glyph unicode="&#xba;" horiz-adv-x="1010" d="M85 1030q0 233 117 361.5t304 128.5t303.5 -127t116.5 -363q0 -234 -117 -362t-303 -128q-193 0 -307 131.5t-114 358.5zM265 1030q0 -169 64 -254.5t177 -85.5q111 0 175.5 85.5t64.5 254.5q0 173 -64.5 256.5t-175.5 83.5t-176 -82.5t-65 -257.5z" />
<glyph unicode="&#xbb;" horiz-adv-x="706" d="M178 10q3 6 49.5 114t46.5 264q0 104 -21.5 190t-54.5 158q-20 38 -11 47q50 0 123 -129q41 -80 55 -132.5t14 -124.5q0 -75 -17 -137t-52 -133q-61 -127 -120 -127q-12 0 -12 10zM354 -12q0 9 31 48q101 123 101 357q0 247 -107 375l-25 31q-3 20 18 15q13 -3 29.5 -14 t39.5 -29q55 -45 103 -150t48 -204q0 -191 -87 -313t-138 -122q-5 0 -9 0.5t-4 5.5z" />
<glyph unicode="&#xbc;" horiz-adv-x="1262" d="M178 -27l1020 1120h100l-1023 -1120h-97zM183 516l9 44l61 3q48 4 58 15t25 79l55 281q5 22 5 40q0 26 -68 35l-45 8l9 45l254 27l-86 -436q-10 -51 -10 -68q0 -19 56 -26l59 -3l-9 -44h-373zM732 182l15 79l355 317h68l-68 -342l110 -7l-44 -80l-82 8q-10 -55 -10 -83 q0 -22 53 -25l60 -4l-9 -45h-360l9 45l57 4q51 3 66 15t21 53q3 17 8 47zM823 255l174 -11l41 202z" />
<glyph unicode="&#xbd;" horiz-adv-x="1262" d="M160 -27l1020 1120h100l-1023 -1120h-97zM165 516l9 44l61 3q48 4 58 15t25 79l55 281q5 22 5 40q0 26 -68 35l-45 8l9 45l254 27l-86 -436q-10 -51 -10 -68q0 -19 56 -26l59 -3l-9 -44h-373zM778 0l19 103q155 94 248 185t93 148q0 94 -85 94q-111 0 -131 -117h-54 l27 131q94 34 180 34q189 0 189 -133q0 -72 -49.5 -117t-327.5 -225h310l-20 -103h-399z" />
<glyph unicode="&#xbe;" horiz-adv-x="1262" d="M174 545l73 75q79 -64 160 -64q41 0 71.5 31t30.5 74q0 115 -176 115q-22 0 -44 -3l30 86q19 1 36 1q46 0 100 -11q80 37 80 112q0 85 -93 85q-88 0 -112 -105h-53l24 116q86 36 171 36q179 0 179 -109q0 -91 -143 -155q106 -39 106 -136q0 -77 -71 -130t-177 -53 q-89 0 -192 35zM178 -27l1020 1120h100l-1023 -1120h-97zM732 182l15 79l355 317h68l-68 -342l110 -7l-44 -80l-82 8q-10 -55 -10 -83q0 -22 53 -25l60 -4l-9 -45h-360l9 45l57 4q52 3 66.5 15t20.5 53q3 17 8 47zM823 255l174 -11l41 202z" />
<glyph unicode="&#xbf;" horiz-adv-x="970" d="M58 350q0 94 30 168t89 141q53 59 122.5 106.5t144.5 95.5v228h179v-305q-71 -43 -131.5 -81t-115.5 -89q-51 -48 -82.5 -109t-31.5 -140q0 -113 71 -168.5t185 -55.5q99 0 191 34.5t141 68.5h11v-204q-79 -30 -167 -50t-195 -20q-205 0 -323 104.5t-118 275.5zM428 1278 v211h204v-211h-204z" />
<glyph unicode="&#xc0;" horiz-adv-x="1228" d="M48 109l114 346l53 -11q59 -262 218 -285q14 -2 29 -3t29 -1q63 0 114.5 23t89.5 71q53 60 105 166.5t110 262.5l255 701q-39 3 -74 5.5t-64 2.5q-97 0 -166.5 -25.5t-113.5 -73.5q-22 -25 -30 -57.5t1 -71.5q6 -29 27.5 -71t56.5 -99l-400 -111q-11 121 6.5 215.5 t67.5 162.5t154.5 126t255.5 105t304 71.5t295 23.5l294 -1054v2q169 -473 450 -444l25 -60q-71 -23 -137 -36t-129 -13q-83 0 -159.5 27t-142 85t-117.5 148.5t-87 217.5h-497q-50 -133 -105 -228t-114 -149q-125 -115 -329 -115q-192 0 -389 146zM554 1422q-3 37 74 -47 q35 -80 56 -151q7 -52 -4 -46q-22 32 -69.5 122t-56.5 122zM1033 593h407q-26 86 -48.5 159.5t-44 145t-44 147t-47.5 164.5z" />
<glyph unicode="&#xc1;" horiz-adv-x="1228" d="M48 109l114 346l53 -11q59 -262 218 -285q14 -2 29 -3t29 -1q63 0 114.5 23t89.5 71q53 60 105 166.5t110 262.5l255 701q-39 3 -74 5.5t-64 2.5q-97 0 -166.5 -25.5t-113.5 -73.5q-22 -25 -30 -57.5t1 -71.5q6 -29 27.5 -71t56.5 -99l-400 -111q-11 121 6.5 215.5 t67.5 162.5t154.5 126t255.5 105t304 71.5t295 23.5l294 -1054v2q169 -473 450 -444l25 -60q-71 -23 -137 -36t-129 -13q-83 0 -159.5 27t-142 85t-117.5 148.5t-87 217.5h-497q-50 -133 -105 -228t-114 -149q-125 -115 -329 -115q-192 0 -389 146zM1033 593h407 q-26 86 -48.5 159.5t-44 145t-44 147t-47.5 164.5zM1489 985q21 71 56 151q77 84 74 47q-9 -32 -56.5 -122t-69.5 -122q-11 -6 -4 46z" />
<glyph unicode="&#xc2;" horiz-adv-x="1228" d="M48 109l114 346l53 -11q59 -262 218 -285q14 -2 29 -3t29 -1q63 0 114.5 23t89.5 71q53 60 105 166.5t110 262.5l255 701q-39 3 -74 5.5t-64 2.5q-97 0 -166.5 -25.5t-113.5 -73.5q-22 -25 -30 -57.5t1 -71.5q6 -29 27.5 -71t56.5 -99l-400 -111q-11 121 6.5 215.5 t67.5 162.5t154.5 126t255.5 105t304 71.5t295 23.5l294 -1054v2q169 -473 450 -444l25 -60q-71 -23 -137 -36t-129 -13q-83 0 -159.5 27t-142 85t-117.5 148.5t-87 217.5h-497q-50 -133 -105 -228t-114 -149q-125 -115 -329 -115q-192 0 -389 146zM570 1276 q155 114 222 197l98 62q33 -113 98 -206l-87 -53q-54 61 -90 159q-41 -50 -119 -129q-3 -4 -21 -22zM1033 593h407q-26 86 -48.5 159.5t-44 145t-44 147t-47.5 164.5z" />
<glyph unicode="&#xc3;" horiz-adv-x="1228" d="M48 109l114 346l53 -11q59 -262 218 -285q14 -2 29 -3t29 -1q63 0 114.5 23t89.5 71q53 60 105 166.5t110 262.5l255 701q-39 3 -74 5.5t-64 2.5q-97 0 -166.5 -25.5t-113.5 -73.5q-22 -25 -30 -57.5t1 -71.5q6 -29 27.5 -71t56.5 -99l-400 -111q-11 121 6.5 215.5 t67.5 162.5t154.5 126t255.5 105t304 71.5t295 23.5l294 -1054v2q169 -473 450 -444l25 -60q-71 -23 -137 -36t-129 -13q-83 0 -159.5 27t-142 85t-117.5 148.5t-87 217.5h-497q-50 -133 -105 -228t-114 -149q-125 -115 -329 -115q-192 0 -389 146zM211 1649q7 154 76 232.5 t169 78.5q51 0 94 -19.5t86 -57.5q43 -39 77.5 -59.5t63.5 -20.5q47 0 68.5 45t24.5 117h140q-10 -156 -74.5 -234t-171.5 -78q-52 0 -96 19t-86 59q-44 41 -76 62.5t-63 21.5q-49 0 -68.5 -45t-23.5 -121h-140zM1033 593h407q-26 86 -48.5 159.5t-44 145t-44 147 t-47.5 164.5z" />
<glyph unicode="&#xc4;" horiz-adv-x="1228" d="M48 109l114 346l53 -11q59 -262 218 -285q14 -2 29 -3t29 -1q63 0 114.5 23t89.5 71q53 60 105 166.5t110 262.5l255 701q-39 3 -74 5.5t-64 2.5q-97 0 -166.5 -25.5t-113.5 -73.5q-22 -25 -30 -57.5t1 -71.5q6 -29 27.5 -71t56.5 -99l-400 -111q-11 121 6.5 215.5 t67.5 162.5t154.5 126t255.5 105t304 71.5t295 23.5l294 -1054v2q169 -473 450 -444l25 -60q-71 -23 -137 -36t-129 -13q-83 0 -159.5 27t-142 85t-117.5 148.5t-87 217.5h-497q-50 -133 -105 -228t-114 -149q-125 -115 -329 -115q-192 0 -389 146zM791 1386l112 86l87 -116 l-112 -80zM1033 593h407q-26 86 -48.5 159.5t-44 145t-44 147t-47.5 164.5zM1135 1388l114 84l85 -115l-110 -81z" />
<glyph unicode="&#xc5;" horiz-adv-x="1228" d="M-10 0l479 1422q-72 40 -116.5 108.5t-44.5 154.5q0 128 89 214.5t217 86.5q129 0 217.5 -86t88.5 -215q0 -84 -45.5 -153t-116.5 -107l480 -1425h-209l-135 416h-569l-135 -416h-200zM380 584h459l-230 705zM455 1683q0 -74 45 -122.5t114 -48.5t114 48.5t45 122.5 q0 73 -44 121.5t-115 48.5q-70 0 -114.5 -48.5t-44.5 -121.5z" />
<glyph unicode="&#xc6;" horiz-adv-x="1870" d="M-39 0l603 1489h1238v-176h-716v-408h666v-176h-666v-553h716v-176h-912v557h-505l-217 -557h-207zM451 723h439v601h-194z" />
<glyph unicode="&#xc7;" horiz-adv-x="1230" d="M66 743q0 187 47.5 326t138.5 242q89 100 211 152.5t273 52.5q75 0 140.5 -11t121.5 -28q48 -15 98.5 -37.5t99.5 -49.5v-239h-16q-26 24 -67 58t-100 67q-57 31 -124 51t-155 20q-95 0 -180 -39t-149 -115q-63 -76 -98 -191t-35 -259q0 -153 37 -263.5t101 -186.5 q62 -74 146 -111.5t178 -37.5q86 0 159 21t130 53q55 31 95 63.5t63 55.5h15v-236q-49 -23 -92.5 -44t-105.5 -41q-8 -3 -23 -7.5t-21 -5.5q1 -15 3 -39t2 -53q0 -149 -82 -241.5t-227 -92.5q-37 0 -87 6t-90 18v160h9q24 -11 63 -22.5t79 -11.5q94 0 138 39.5t44 126.5 q0 18 -0.5 38t-1.5 45q-18 -1 -33.5 -2t-37.5 -1q-146 0 -268.5 49t-211.5 146t-138 242t-49 333z" />
<glyph unicode="&#xc8;" horiz-adv-x="1149" d="M8 864q-21 172 14 299t128.5 211t247 125t369.5 41h629l-35 -343h-122q-2 38 -3.5 62t-3.5 40q-13 51 -87 76q-45 14 -126 21.5t-199 7.5h-3l7 -531h482l-131 -163q-123 14 -204 22t-123 8h-23l4 -86q-2 -92 -14 -165.5t-37 -129.5q-21 -43 -52 -85t-79 -84l398 -16 q23 0 52.5 -2t51.5 -2q151 0 315 158l3 -169q-152 -196 -319 -196l-49 2l-946 37l160 206h30q71 0 114.5 14t63.5 41q20 26 29.5 91.5t6.5 169.5l-11 876q-84 -4 -147.5 -29.5t-108.5 -71.5q-93 -100 -58 -266l10 -43zM539 1422q-3 37 74 -47q35 -80 56 -151q7 -52 -4 -46 q-22 32 -69.5 122t-56.5 122z" />
<glyph unicode="&#xc9;" horiz-adv-x="1149" d="M8 864q-21 172 14 299t128.5 211t247 125t369.5 41h629l-35 -343h-122q-2 38 -3.5 62t-3.5 40q-13 51 -87 76q-45 14 -126 21.5t-199 7.5h-3l7 -531h482l-131 -163q-123 14 -204 22t-123 8h-23l4 -86q-2 -92 -14 -165.5t-37 -129.5q-21 -43 -52 -85t-79 -84l398 -16 q23 0 52.5 -2t51.5 -2q151 0 315 158l3 -169q-152 -196 -319 -196l-49 2l-946 37l160 206h30q71 0 114.5 14t63.5 41q20 26 29.5 91.5t6.5 169.5l-11 876q-84 -4 -147.5 -29.5t-108.5 -71.5q-93 -100 -58 -266l10 -43zM454 1221q21 71 56 151q77 84 74 47q-9 -32 -56.5 -122 t-69.5 -122q-11 -6 -4 46z" />
<glyph unicode="&#xca;" horiz-adv-x="1149" d="M8 864q-21 172 14 299t128.5 211t247 125t369.5 41h629l-35 -343h-122q-2 38 -3.5 62t-3.5 40q-13 51 -87 76q-45 14 -126 21.5t-199 7.5h-3l7 -531h482l-131 -163q-123 14 -204 22t-123 8h-23l4 -86q-2 -92 -14 -165.5t-37 -129.5q-21 -43 -52 -85t-79 -84l398 -16 q23 0 52.5 -2t51.5 -2q151 0 315 158l3 -169q-152 -196 -319 -196l-49 2l-946 37l160 206h30q71 0 114.5 14t63.5 41q20 26 29.5 91.5t6.5 169.5l-11 876q-84 -4 -147.5 -29.5t-108.5 -71.5q-93 -100 -58 -266l10 -43zM591 1296q155 114 222 197l98 62q33 -113 98 -206 l-87 -53q-54 61 -90 159q-41 -50 -119 -129q-3 -4 -21 -22z" />
<glyph unicode="&#xcb;" horiz-adv-x="1149" d="M8 864q-21 172 14 299t128.5 211t247 125t369.5 41h629l-35 -343h-122q-2 38 -3.5 62t-3.5 40q-13 51 -87 76q-45 14 -126 21.5t-199 7.5h-3l7 -531h482l-131 -163q-123 14 -204 22t-123 8h-23l4 -86q-2 -92 -14 -165.5t-37 -129.5q-21 -43 -52 -85t-79 -84l398 -16 q23 0 52.5 -2t51.5 -2q151 0 315 158l3 -169q-152 -196 -319 -196l-49 2l-946 37l160 206h30q71 0 114.5 14t63.5 41q20 26 29.5 91.5t6.5 169.5l-11 876q-84 -4 -147.5 -29.5t-108.5 -71.5q-93 -100 -58 -266l10 -43zM844 1406l112 86l87 -116l-112 -80zM1188 1408l114 84 l85 -115l-110 -81z" />
<glyph unicode="&#xcc;" horiz-adv-x="764" d="M-182 2l161 206h80q99 0 130 61q17 36 24 105.5t6 178.5l-1 778h-303l160 209h735l-168 -209h-150l5 -684q-2 -144 -44.5 -258t-134.5 -199q46 -1 95 -2.5t97.5 -2t94.5 -1t82 -1.5l-162 -207zM315 1422q-3 37 74 -47q35 -80 56 -151q7 -52 -4 -46q-22 32 -69.5 122 t-56.5 122z" />
<glyph unicode="&#xcd;" horiz-adv-x="764" d="M-182 2l161 206h80q99 0 130 61q17 36 24 105.5t6 178.5l-1 778h-303l160 209h735l-168 -209h-150l5 -684q-2 -144 -44.5 -258t-134.5 -199q46 -1 95 -2.5t97.5 -2t94.5 -1t82 -1.5l-162 -207zM192 1221q21 71 56 151q77 84 74 47q-9 -32 -56.5 -122t-69.5 -122 q-11 -6 -4 46z" />
<glyph unicode="&#xce;" horiz-adv-x="764" d="M-182 2l161 206h80q99 0 130 61q17 36 24 105.5t6 178.5l-1 778h-303l160 209h735l-168 -209h-150l5 -684q-2 -144 -44.5 -258t-134.5 -199q46 -1 95 -2.5t97.5 -2t94.5 -1t82 -1.5l-162 -207zM357 1296q155 114 222 197l98 62q33 -113 98 -206l-87 -53q-54 61 -90 159 q-41 -50 -119 -129q-3 -4 -21 -22z" />
<glyph unicode="&#xcf;" horiz-adv-x="764" d="M-182 2l161 206h80q99 0 130 61q17 36 24 105.5t6 178.5l-1 778h-303l160 209h735l-168 -209h-150l5 -684q-2 -144 -44.5 -258t-134.5 -199q46 -1 95 -2.5t97.5 -2t94.5 -1t82 -1.5l-162 -207zM569 1406l112 86l87 -116l-112 -80zM913 1408l114 84l85 -115l-110 -81z" />
<glyph unicode="&#xd0;" horiz-adv-x="1430" d="M24 740v143h168v606h339q210 0 329.5 -31.5t203.5 -86.5q144 -95 223 -252.5t79 -375.5q0 -204 -82.5 -368t-221.5 -256q-111 -74 -228.5 -96.5t-298.5 -22.5h-343v740h-168zM390 170h151q132 0 231 21.5t181 77.5q103 70 155 186.5t52 290.5q0 172 -57 293.5t-169 189.5 q-79 48 -169 69t-224 21h-151v-436h327v-143h-327v-570z" />
<glyph unicode="&#xd1;" horiz-adv-x="1367" d="M50 120l151 202q159 -187 316 -187q105 0 167 89q31 43 47 109t18 141q-2 232 -5.5 457t-6.5 458q-12 1 -23.5 2.5t-14.5 1.5q-69 0 -129 -30.5t-101 -76.5q-35 -56 -45.5 -129.5t8.5 -160.5l-232 -126q-24 167 7.5 291t116.5 210q85 85 206 127t277 42h117 q86 -146 186 -288t213 -288l176 -228h-1q45 -58 76 -96.5t54 -69.5t43 -59t43 -64q-1 121 -2.5 240.5t-4.5 242.5q-2 155 27 275t87 204t143 127.5t196 43.5q40 0 90 -11t108 -33l-60 -201q-65 43 -115 65.5t-87 22.5q-94 0 -139 -89.5t-45 -261.5l9 -752v2l18 -313 l-166 -62q-35 69 -114.5 183.5t-193.5 261.5l-334 433q-36 44 -58.5 72t-40.5 51t-35 46.5t-40 58.5q2 -73 2.5 -145t2.5 -147q2 -189 -31 -335t-99.5 -245.5t-164.5 -151t-227 -51.5q-94 0 -189.5 35t-200.5 107zM311 1669q7 154 76 232.5t169 78.5q51 0 94 -19.5t86 -57.5 q43 -39 77.5 -59.5t63.5 -20.5q47 0 68.5 45t24.5 117h140q-10 -156 -74.5 -234t-171.5 -78q-52 0 -96 19t-86 59q-44 41 -76 62.5t-63 21.5q-49 0 -68.5 -45t-23.5 -121h-140z" />
<glyph unicode="&#xd2;" d="M96 560q-87 405 128 709q212 311 585 311q128 0 239 -41t204 -120q93 -81 152 -187.5t89 -242.5q43 -213 15 -392.5t-132 -331.5q-210 -302 -589 -302q-262 0 -447 161q-91 81 -153 189t-91 247zM361.5 905q-10.5 -157 27.5 -345q103 -466 411 -466q123 0 211.5 63.5 t151.5 194.5q61 136 73.5 295t-28.5 349q-50 229 -150 342.5t-255 113.5q-121 0 -213.5 -64t-154.5 -195q-63 -131 -73.5 -288zM636 1422q-3 37 74 -47q35 -80 56 -151q7 -52 -4 -46q-22 32 -69.5 122t-56.5 122z" />
<glyph unicode="&#xd3;" d="M96 560q-87 405 128 709q212 311 585 311q128 0 239 -41t204 -120q93 -81 152 -187.5t89 -242.5q43 -213 15 -392.5t-132 -331.5q-210 -302 -589 -302q-262 0 -447 161q-91 81 -153 189t-91 247zM361.5 905q-10.5 -157 27.5 -345q103 -466 411 -466q123 0 211.5 63.5 t151.5 194.5q61 136 73.5 295t-28.5 349q-50 229 -150 342.5t-255 113.5q-121 0 -213.5 -64t-154.5 -195q-63 -131 -73.5 -288zM536 1221q21 71 56 151q77 84 74 47q-9 -32 -56.5 -122t-69.5 -122q-11 -6 -4 46z" />
<glyph unicode="&#xd4;" d="M96 560q-87 405 128 709q212 311 585 311q128 0 239 -41t204 -120q93 -81 152 -187.5t89 -242.5q43 -213 15 -392.5t-132 -331.5q-210 -302 -589 -302q-262 0 -447 161q-91 81 -153 189t-91 247zM361.5 905q-10.5 -157 27.5 -345q103 -466 411 -466q123 0 211.5 63.5 t151.5 194.5q61 136 73.5 295t-28.5 349q-50 229 -150 342.5t-255 113.5q-121 0 -213.5 -64t-154.5 -195q-63 -131 -73.5 -288zM685 1296q155 114 222 197l98 62q33 -113 98 -206l-87 -53q-54 61 -90 159q-41 -50 -119 -129q-3 -4 -21 -22z" />
<glyph unicode="&#xd5;" d="M96 560q-87 405 128 709q212 311 585 311q128 0 239 -41t204 -120q93 -81 152 -187.5t89 -242.5q43 -213 15 -392.5t-132 -331.5q-210 -302 -589 -302q-262 0 -447 161q-91 81 -153 189t-91 247zM311 1669q7 154 76 232.5t169 78.5q51 0 94 -19.5t86 -57.5 q43 -39 77.5 -59.5t63.5 -20.5q47 0 68.5 45t24.5 117h140q-10 -156 -74.5 -234t-171.5 -78q-52 0 -96 19t-86 59q-44 41 -76 62.5t-63 21.5q-49 0 -68.5 -45t-23.5 -121h-140zM361.5 905q-10.5 -157 27.5 -345q103 -466 411 -466q123 0 211.5 63.5t151.5 194.5 q61 136 73.5 295t-28.5 349q-50 229 -150 342.5t-255 113.5q-121 0 -213.5 -64t-154.5 -195q-63 -131 -73.5 -288z" />
<glyph unicode="&#xd6;" d="M96 560q-87 405 128 709q212 311 585 311q128 0 239 -41t204 -120q93 -81 152 -187.5t89 -242.5q43 -213 15 -392.5t-132 -331.5q-210 -302 -589 -302q-262 0 -447 161q-91 81 -153 189t-91 247zM361.5 905q-10.5 -157 27.5 -345q103 -466 411 -466q123 0 211.5 63.5 t151.5 194.5q61 136 73.5 295t-28.5 349q-50 229 -150 342.5t-255 113.5q-121 0 -213.5 -64t-154.5 -195q-63 -131 -73.5 -288zM905 1406l112 86l87 -116l-112 -80zM1249 1408l114 84l85 -115l-110 -81z" />
<glyph unicode="&#xd7;" horiz-adv-x="1135" d="M195 246l286 283l-286 285l73 74l284 -287l285 287l73 -74l-286 -285l286 -283l-73 -74l-285 287l-284 -287z" />
<glyph unicode="&#xd8;" d="M66 744q0 368 180.5 572t477.5 204q114 0 203.5 -27.5t169.5 -82.5l115 171h148l-171 -251q91 -100 142.5 -243.5t51.5 -342.5q0 -368 -180 -571.5t-479 -203.5q-110 0 -204.5 29t-171.5 82l-132 -196h-148l189 278q-90 99 -140.5 245t-50.5 337zM270 744 q0 -135 26 -239.5t73 -180.5l626 936q-52 44 -120 66.5t-150 22.5q-208 0 -331.5 -154t-123.5 -451zM450 232q57 -46 120.5 -69t154.5 -23q206 0 330 155.5t124 448.5q0 138 -27.5 246t-73.5 179z" />
<glyph unicode="&#xd9;" horiz-adv-x="1343" d="M3 870q-46 335 129.5 502.5t574.5 167.5h115q-20 -157 -26 -316t-8 -320q0 -72 2.5 -139t6.5 -125.5t9.5 -106t13.5 -81.5q15 -74 42 -133t63.5 -99.5t81.5 -62t95 -21.5q54 0 103.5 25.5t92 73.5t77 116.5t58.5 154.5l-15 1030l286 35l-7 -364v1q4 -180 6 -359t5 -356 q0 -100 4.5 -162t9.5 -89q9 -38 37 -57t79 -19q25 0 61.5 3.5t93.5 14.5l5 -128l-557 -101l-3 228q-73 -109 -167.5 -164.5t-203.5 -55.5q-97 0 -179.5 34t-151.5 100q-144 132 -189 352q-14 66 -22 173.5t-8 250.5q-1 131 3 264.5t16 251.5q-13 1 -19 2.5t-11 1.5 q-148 0 -231 -107q-37 -56 -47.5 -127.5t9.5 -162.5zM639 1422q-3 37 74 -47q35 -80 56 -151q7 -52 -4 -46q-22 32 -69.5 122t-56.5 122z" />
<glyph unicode="&#xda;" horiz-adv-x="1343" d="M3 870q-46 335 129.5 502.5t574.5 167.5h115q-20 -157 -26 -316t-8 -320q0 -72 2.5 -139t6.5 -125.5t9.5 -106t13.5 -81.5q15 -74 42 -133t63.5 -99.5t81.5 -62t95 -21.5q54 0 103.5 25.5t92 73.5t77 116.5t58.5 154.5l-15 1030l286 35l-7 -364v1q4 -180 6 -359t5 -356 q0 -100 4.5 -162t9.5 -89q9 -38 37 -57t79 -19q25 0 61.5 3.5t93.5 14.5l5 -128l-557 -101l-3 228q-73 -109 -167.5 -164.5t-203.5 -55.5q-97 0 -179.5 34t-151.5 100q-144 132 -189 352q-14 66 -22 173.5t-8 250.5q-1 131 3 264.5t16 251.5q-13 1 -19 2.5t-11 1.5 q-148 0 -231 -107q-37 -56 -47.5 -127.5t9.5 -162.5zM529 1221q21 71 56 151q77 84 74 47q-9 -32 -56.5 -122t-69.5 -122q-11 -6 -4 46z" />
<glyph unicode="&#xdb;" horiz-adv-x="1343" d="M3 870q-46 335 129.5 502.5t574.5 167.5h115q-20 -157 -26 -316t-8 -320q0 -72 2.5 -139t6.5 -125.5t9.5 -106t13.5 -81.5q15 -74 42 -133t63.5 -99.5t81.5 -62t95 -21.5q54 0 103.5 25.5t92 73.5t77 116.5t58.5 154.5l-15 1030l286 35l-7 -364v1q4 -180 6 -359t5 -356 q0 -100 4.5 -162t9.5 -89q9 -38 37 -57t79 -19q25 0 61.5 3.5t93.5 14.5l5 -128l-557 -101l-3 228q-73 -109 -167.5 -164.5t-203.5 -55.5q-97 0 -179.5 34t-151.5 100q-144 132 -189 352q-14 66 -22 173.5t-8 250.5q-1 131 3 264.5t16 251.5q-13 1 -19 2.5t-11 1.5 q-148 0 -231 -107q-37 -56 -47.5 -127.5t9.5 -162.5zM636 1296q155 114 222 197l98 62q33 -113 98 -206l-87 -53q-54 61 -90 159q-41 -50 -119 -129q-3 -4 -21 -22z" />
<glyph unicode="&#xdc;" horiz-adv-x="1343" d="M3 870q-46 335 129.5 502.5t574.5 167.5h115q-20 -157 -26 -316t-8 -320q0 -72 2.5 -139t6.5 -125.5t9.5 -106t13.5 -81.5q15 -74 42 -133t63.5 -99.5t81.5 -62t95 -21.5q54 0 103.5 25.5t92 73.5t77 116.5t58.5 154.5l-15 1030l286 35l-7 -364v1q4 -180 6 -359t5 -356 q0 -100 4.5 -162t9.5 -89q9 -38 37 -57t79 -19q25 0 61.5 3.5t93.5 14.5l5 -128l-557 -101l-3 228q-73 -109 -167.5 -164.5t-203.5 -55.5q-97 0 -179.5 34t-151.5 100q-144 132 -189 352q-14 66 -22 173.5t-8 250.5q-1 131 3 264.5t16 251.5q-13 1 -19 2.5t-11 1.5 q-148 0 -231 -107q-37 -56 -47.5 -127.5t9.5 -162.5zM882 1406l112 86l87 -116l-112 -80zM1226 1408l114 84l85 -115l-110 -81z" />
<glyph unicode="&#xdd;" horiz-adv-x="1180" d="M-9 1399q70 90 135.5 135.5t128.5 45.5q71 0 133.5 -37.5t109.5 -103.5q45 -63 89 -168t86 -247v1l159 -549q24 -82 45 -125t38 -43q18 0 46 27.5t63 78.5q38 55 74 123t65 143l33 859l293 23l-28 -356v1l-30 -786q-30 -839 -598 -839q-91 0 -189.5 27.5t-207.5 86.5 l147 183q81 -79 160.5 -118t154.5 -39q227 0 244 468l6 159q-72 -146 -149 -219.5t-153 -73.5q-165 0 -256 319l-218 746l1 -1q-81 270 -161 270q-65 0 -215 -168zM425 1221q21 71 56 151q77 84 74 47q-9 -32 -56.5 -122t-69.5 -122q-11 -6 -4 46z" />
<glyph unicode="&#xde;" horiz-adv-x="1158" d="M151 0v1489h198v-270h175q133 0 230 -22.5t164 -66.5q83 -53 130 -138t47 -205q0 -92 -35 -176.5t-95 -141.5q-78 -75 -187.5 -111t-260.5 -36h-168v-322h-198zM349 488h137q119 0 195 20.5t123 65.5q44 41 64.5 92t20.5 116q0 72 -26 125.5t-82 88.5q-48 30 -112 42.5 t-154 12.5h-166v-563z" />
<glyph unicode="&#xdf;" horiz-adv-x="1123" d="M136 0v1080q0 130 34 218t95 150q60 60 142.5 89t174.5 29q168 0 279.5 -85t111.5 -240q0 -112 -71 -201t-184 -121v-9q164 -37 257 -147t93 -282q0 -218 -135 -361.5t-351 -143.5q-25 0 -62.5 3t-59.5 7v166h10q28 -8 59 -12.5t61 -4.5q77 0 131.5 27.5t87.5 74.5 q35 51 49.5 111t14.5 141q0 169 -103 248.5t-304 79.5v157q152 0 233.5 57.5t81.5 190.5q0 33 -10 68.5t-34 63.5q-24 29 -62 46.5t-97 17.5q-53 0 -96 -14.5t-81 -54.5q-36 -37 -56.5 -103t-20.5 -160v-1086h-188z" />
<glyph unicode="&#xe0;" horiz-adv-x="1075" d="M175 563.5q30 146.5 118 290.5q91 147 226.5 221t313.5 74q35 0 77.5 -1t87 -3t88.5 -4.5t82 -5.5l-7 -328v2l5 -491q2 -57 5 -93.5t5 -50.5q4 -31 34 -31q85 0 286 290l5 -209q-182 -248 -367 -248q-175 0 -214 181q-6 26 -8.5 71t-1.5 102l-5 84q-27 -81 -64 -147.5 t-80 -123.5q-134 -167 -283 -167q-240 0 -301 292q-32 149 -2 295.5zM335 705q-3 37 74 -47q35 -80 56 -151q7 -52 -4 -46q-22 32 -69.5 122t-56.5 122zM424.5 531.5q-6.5 -121.5 13.5 -221.5q25 -127 87 -127q70 0 189 167q60 90 106.5 187.5t81.5 211.5l-3 198 q-61 22 -112 32.5t-108 10.5q-79 0 -133.5 -53t-83.5 -156q-31 -128 -37.5 -249.5z" />
<glyph unicode="&#xe1;" horiz-adv-x="1075" d="M175 563.5q30 146.5 118 290.5q91 147 226.5 221t313.5 74q35 0 77.5 -1t87 -3t88.5 -4.5t82 -5.5l-7 -328v2l5 -491q2 -57 5 -93.5t5 -50.5q4 -31 34 -31q85 0 286 290l5 -209q-182 -248 -367 -248q-175 0 -214 181q-6 26 -8.5 71t-1.5 102l-5 84q-27 -81 -64 -147.5 t-80 -123.5q-134 -167 -283 -167q-240 0 -301 292q-32 149 -2 295.5zM372 848q21 71 56 151q77 84 74 47q-9 -32 -56.5 -122t-69.5 -122q-11 -6 -4 46zM424.5 531.5q-6.5 -121.5 13.5 -221.5q25 -127 87 -127q70 0 189 167q60 90 106.5 187.5t81.5 211.5l-3 198 q-61 22 -112 32.5t-108 10.5q-79 0 -133.5 -53t-83.5 -156q-31 -128 -37.5 -249.5z" />
<glyph unicode="&#xe2;" horiz-adv-x="698" d="M175 563.5q30 146.5 118 290.5q91 147 226.5 221t313.5 74q35 0 77.5 -1t87 -3t88.5 -4.5t82 -5.5l-7 -328v2l5 -491q2 -57 5 -93.5t5 -50.5q4 -31 34 -31q85 0 286 290l5 -209q-182 -248 -367 -248q-175 0 -214 181q-6 26 -8.5 71t-1.5 102l-5 84q-27 -81 -64 -147.5 t-80 -123.5q-134 -167 -283 -167q-240 0 -301 292q-32 149 -2 295.5zM424.5 531.5q-6.5 -121.5 13.5 -221.5q25 -127 87 -127q70 0 189 167q60 90 106.5 187.5t81.5 211.5l-3 198q-61 22 -112 32.5t-108 10.5q-79 0 -133.5 -53t-83.5 -156q-31 -128 -37.5 -249.5zM459 612 q155 114 222 197l98 62q33 -113 98 -206l-87 -53q-54 61 -90 159q-41 -50 -119 -129q-3 -4 -21 -22z" />
<glyph unicode="&#xe3;" horiz-adv-x="1075" d="M136 1316q7 154 76 232.5t169 78.5q51 0 94 -19.5t86 -57.5q43 -39 77.5 -59.5t63.5 -20.5q47 0 68.5 45t24.5 117h140q-10 -156 -74.5 -234t-171.5 -78q-52 0 -96 19t-86 59q-44 41 -76 62.5t-63 21.5q-49 0 -68.5 -45t-23.5 -121h-140zM175 563.5q30 146.5 118 290.5 q91 147 226.5 221t313.5 74q35 0 77.5 -1t87 -3t88.5 -4.5t82 -5.5l-7 -328v2l5 -491q2 -57 5 -93.5t5 -50.5q4 -31 34 -31q85 0 286 290l5 -209q-182 -248 -367 -248q-175 0 -214 181q-6 26 -8.5 71t-1.5 102l-5 84q-27 -81 -64 -147.5t-80 -123.5q-134 -167 -283 -167 q-240 0 -301 292q-32 149 -2 295.5zM424.5 531.5q-6.5 -121.5 13.5 -221.5q25 -127 87 -127q70 0 189 167q60 90 106.5 187.5t81.5 211.5l-3 198q-61 22 -112 32.5t-108 10.5q-79 0 -133.5 -53t-83.5 -156q-31 -128 -37.5 -249.5z" />
<glyph unicode="&#xe4;" horiz-adv-x="1075" d="M175 563.5q30 146.5 118 290.5q91 147 226.5 221t313.5 74q35 0 77.5 -1t87 -3t88.5 -4.5t82 -5.5l-7 -328v2l5 -491q2 -57 5 -93.5t5 -50.5q4 -31 34 -31q85 0 286 290l5 -209q-182 -248 -367 -248q-175 0 -214 181q-6 26 -8.5 71t-1.5 102l-5 84q-27 -81 -64 -147.5 t-80 -123.5q-134 -167 -283 -167q-240 0 -301 292q-32 149 -2 295.5zM424.5 531.5q-6.5 -121.5 13.5 -221.5q25 -127 87 -127q70 0 189 167q60 90 106.5 187.5t81.5 211.5l-3 198q-61 22 -112 32.5t-108 10.5q-79 0 -133.5 -53t-83.5 -156q-31 -128 -37.5 -249.5zM714 1033 l112 86l87 -116l-112 -80zM1058 1035l114 84l85 -115l-110 -81z" />
<glyph unicode="&#xe5;" horiz-adv-x="1075" d="M58 324q0 116 49 197.5t155 129.5q94 43 222 59.5t276 24.5v36q0 66 -20 106.5t-56 62.5q-36 23 -88 30.5t-107 7.5q-52 0 -104.5 -10t-86.5 -19q-46 -12 -82 -25.5t-56 -21.5h-11v191q47 14 117.5 27t159.5 19q-90 36 -148 110t-58 172q0 128 89 214.5t217 86.5 q129 0 217.5 -86t88.5 -215q0 -99 -60.5 -176t-157.5 -111q86 -12 146.5 -39t99.5 -68q43 -46 65 -109.5t22 -153.5v-764h-187v119q-23 -17 -61.5 -47t-74.5 -49q-50 -26 -96.5 -40t-130.5 -14q-69 0 -131 26t-109 73q-46 46 -72.5 113.5t-26.5 142.5zM252 336 q0 -96 54 -145t158 -49q89 0 161 38.5t135 94.5v310q-67 -6 -169.5 -16.5t-165.5 -29.5q-75 -23 -124 -70.5t-49 -132.5zM367 1420q0 -74 45 -123t114 -49t114 49t45 123q0 73 -44 121.5t-115 48.5q-70 0 -114.5 -48.5t-44.5 -121.5z" />
<glyph unicode="&#xe6;" horiz-adv-x="1802" d="M58 317q0 129 53 204t150 117q92 39 231.5 52t293.5 16v58q0 65 -21.5 108t-60.5 67q-36 22 -87.5 31.5t-116.5 9.5q-81 0 -176.5 -26.5t-152.5 -51.5h-15v191q49 14 151.5 33.5t193.5 19.5q160 0 260 -48t153 -136q66 81 165 133.5t217 52.5q224 0 338.5 -134.5 t114.5 -372.5v-82h-788q0 -114 30 -195.5t83 -132.5q53 -50 120 -71.5t146 -21.5q65 0 125.5 14.5t106.5 35.5q51 23 86 44.5t58 40.5h11v-205l-82.5 -32.5t-88.5 -30.5q-55 -15 -99.5 -23t-114.5 -8q-161 0 -276 52t-189 155q-21 -19 -64.5 -59.5t-91.5 -68.5 q-65 -38 -134.5 -60t-179.5 -22q-146 0 -247.5 97t-101.5 249zM251 330q0 -95 56 -141.5t167 -46.5q91 0 184 44t159 112q-19 54 -29 119.5t-10 140.5q-95 -3 -189.5 -8.5t-169.5 -26.5q-74 -20 -121 -66t-47 -127zM964 703h603q-5 59 -20.5 112.5t-47.5 92.5 q-31 38 -85 61.5t-127 23.5q-78 0 -129.5 -21.5t-94.5 -62.5q-40 -38 -64.5 -92.5t-34.5 -113.5z" />
<glyph unicode="&#xe7;" horiz-adv-x="805" d="M145 228q0 217 157 394t350 177q84 0 167 -37l-49 -184h-45l3 11q7 33 7 49q0 99 -136 99q-124 0 -216.5 -142t-92.5 -332q0 -201 156 -201q117 0 329 136l-11 -56q-148 -105 -319 -151l-37 -56q73 -21 73 -81q0 -51 -56.5 -94.5t-123.5 -43.5q-29 0 -69 7l55 76 q35 -22 61 -22q64 0 64 51q0 55 -101 61l65 92q-231 24 -231 247z" />
<glyph unicode="&#xe8;" horiz-adv-x="1078" d="M105 360q-64 290 103 545q84 131 190.5 194.5t236.5 63.5q51 0 97 -17.5t82.5 -49.5t63 -77t38.5 -100q22 -103 -12 -191t-123 -160q-81 -66 -186.5 -103.5t-232.5 -40.5l2 -15q29 -129 87 -194t151 -65q88 0 199 54t247 163v-159q-143 -115 -272.5 -173.5t-243.5 -58.5 q-78 0 -145 26.5t-130 82.5q-116 106 -152 275zM343 549q94 12 163.5 40.5t112.5 71t58.5 98t1.5 121.5q-26 121 -105 121q-54 0 -98 -35.5t-77 -108.5q-35 -68 -49.5 -144.5t-6.5 -163.5zM470 1049q-3 37 74 -47q35 -80 56 -151q7 -52 -4 -46q-22 32 -69.5 122t-56.5 122z " />
<glyph unicode="&#xe9;" horiz-adv-x="1078" d="M105 360q-64 290 103 545q84 131 190.5 194.5t236.5 63.5q51 0 97 -17.5t82.5 -49.5t63 -77t38.5 -100q22 -103 -12 -191t-123 -160q-81 -66 -186.5 -103.5t-232.5 -40.5l2 -15q29 -129 87 -194t151 -65q88 0 199 54t247 163v-159q-143 -115 -272.5 -173.5t-243.5 -58.5 q-78 0 -145 26.5t-130 82.5q-116 106 -152 275zM343 549q94 12 163.5 40.5t112.5 71t58.5 98t1.5 121.5q-26 121 -105 121q-54 0 -98 -35.5t-77 -108.5q-35 -68 -49.5 -144.5t-6.5 -163.5zM423 848q21 71 56 151q77 84 74 47q-9 -32 -56.5 -122t-69.5 -122q-11 -6 -4 46z " />
<glyph unicode="&#xea;" horiz-adv-x="1078" d="M105 360q-64 290 103 545q84 131 190.5 194.5t236.5 63.5q51 0 97 -17.5t82.5 -49.5t63 -77t38.5 -100q22 -103 -12 -191t-123 -160q-81 -66 -186.5 -103.5t-232.5 -40.5l2 -15q29 -129 87 -194t151 -65q88 0 199 54t247 163v-159q-143 -115 -272.5 -173.5t-243.5 -58.5 q-78 0 -145 26.5t-130 82.5q-116 106 -152 275zM343 549q94 12 163.5 40.5t112.5 71t58.5 98t1.5 121.5q-26 121 -105 121q-54 0 -98 -35.5t-77 -108.5q-35 -68 -49.5 -144.5t-6.5 -163.5zM545 923q155 114 222 197l98 62q33 -113 98 -206l-87 -53q-54 61 -90 159 q-41 -50 -119 -129q-3 -4 -21 -22z" />
<glyph unicode="&#xeb;" horiz-adv-x="1078" d="M105 360q-64 290 103 545q84 131 190.5 194.5t236.5 63.5q51 0 97 -17.5t82.5 -49.5t63 -77t38.5 -100q22 -103 -12 -191t-123 -160q-81 -66 -186.5 -103.5t-232.5 -40.5l2 -15q29 -129 87 -194t151 -65q88 0 199 54t247 163v-159q-143 -115 -272.5 -173.5t-243.5 -58.5 q-78 0 -145 26.5t-130 82.5q-116 106 -152 275zM277 1082l112 86l87 -116l-112 -80zM343 549q94 12 163.5 40.5t112.5 71t58.5 98t1.5 121.5q-26 121 -105 121q-54 0 -98 -35.5t-77 -108.5q-35 -68 -49.5 -144.5t-6.5 -163.5zM621 1084l114 84l85 -115l-110 -81z" />
<glyph unicode="&#xec;" horiz-adv-x="468" d="M140 0v1117h188v-1117h-188zM207 1049q-3 37 74 -47q35 -80 56 -151q7 -52 -4 -46q-22 32 -69.5 122t-56.5 122z" />
<glyph unicode="&#xed;" horiz-adv-x="468" d="M77 848q21 71 56 151q77 84 74 47q-9 -32 -56.5 -122t-69.5 -122q-11 -6 -4 46zM140 0v1117h188v-1117h-188z" />
<glyph unicode="&#xee;" horiz-adv-x="468" d="M-54 1297l174 379h227l174 -379h-151l-139 263l-138 -263h-147zM140 0v1117h188v-1117h-188z" />
<glyph unicode="&#xef;" horiz-adv-x="468" d="M-38 1304v195h189v-195h-189zM140 0v1117h188v-1117h-188zM317 1304v195h189v-195h-189z" />
<glyph unicode="&#xf0;" horiz-adv-x="1118" d="M57 484q0 231 137 360.5t324 129.5q100 0 174 -26.5t157 -79.5q-31 112 -97.5 220.5t-145.5 178.5l-262 -161l-66 97l238 143q-82 68 -156 106.5t-161 82.5v21h296q38 -28 79.5 -59t82.5 -60l212 129l66 -97l-190 -111q130 -130 219 -305.5t89 -415.5q0 -323 -136 -495.5 t-370 -172.5q-214 0 -352 131t-138 384zM252 482q0 -180 80 -267t216 -87q64 0 121.5 22t99.5 76q46 59 70.5 143.5t24.5 234.5q0 32 -1.5 59.5t-3.5 57.5q-73 46 -150 67t-157 21q-127 0 -213.5 -80t-86.5 -247z" />
<glyph unicode="&#xf1;" horiz-adv-x="1142" d="M-38 914q87 124 179 185t187 61q173 0 209 -178q8 -28 9.5 -71.5t1.5 -101.5v-87q36 81 74 150.5t84 126.5q131 161 278 161q191 0 238 -210q13 -68 16 -149l3 -483q3 -58 4.5 -94t5.5 -50q6 -31 37 -31q82 0 283 290l6 -209q-180 -248 -369 -248q-171 0 -211 181 q-12 54 -22 173v485q0 110 -16 125.5t-30 15.5q-85 0 -176.5 -145.5t-204.5 -434.5v-375l-256 -15l-1 836q0 56 -0.5 91t-4.5 51q-9 32 -36 32q-40 0 -111 -74t-171 -219zM179 1316q7 154 76 232.5t169 78.5q51 0 94 -19.5t86 -57.5q43 -39 77.5 -59.5t63.5 -20.5 q47 0 68.5 45t24.5 117h140q-10 -156 -74.5 -234t-171.5 -78q-52 0 -96 19t-86 59q-44 41 -76 62.5t-63 21.5q-49 0 -68.5 -45t-23.5 -121h-140z" />
<glyph unicode="&#xf2;" horiz-adv-x="1112" d="M106 360q-66 299 107 548q87 128 196.5 190t243.5 62q151 0 274 -108q119 -110 153 -270q33 -158 7 -296t-111 -262q-88 -126 -202 -187t-254 -61q-142 0 -264 112q-117 111 -150 272zM351.5 637.5q-4.5 -105.5 20.5 -222.5q64 -293 232 -293q66 0 112.5 44t79.5 129 q35 93 39 197.5t-20 225.5q-32 152 -90 225t-143 73q-125 0 -191 -179q-35 -94 -39.5 -199.5zM453 1049q-3 37 74 -47q35 -80 56 -151q7 -52 -4 -46q-22 32 -69.5 122t-56.5 122z" />
<glyph unicode="&#xf3;" horiz-adv-x="1112" d="M106 360q-66 299 107 548q87 128 196.5 190t243.5 62q151 0 274 -108q119 -110 153 -270q33 -158 7 -296t-111 -262q-88 -126 -202 -187t-254 -61q-142 0 -264 112q-117 111 -150 272zM351.5 637.5q-4.5 -105.5 20.5 -222.5q64 -293 232 -293q66 0 112.5 44t79.5 129 q35 93 39 197.5t-20 225.5q-32 152 -90 225t-143 73q-125 0 -191 -179q-35 -94 -39.5 -199.5zM403 848q21 71 56 151q77 84 74 47q-9 -32 -56.5 -122t-69.5 -122q-11 -6 -4 46z" />
<glyph unicode="&#xf4;" horiz-adv-x="1112" d="M106 360q-66 299 107 548q87 128 196.5 190t243.5 62q151 0 274 -108q119 -110 153 -270q33 -158 7 -296t-111 -262q-88 -126 -202 -187t-254 -61q-142 0 -264 112q-117 111 -150 272zM351.5 637.5q-4.5 -105.5 20.5 -222.5q64 -293 232 -293q66 0 112.5 44t79.5 129 q35 93 39 197.5t-20 225.5q-32 152 -90 225t-143 73q-125 0 -191 -179q-35 -94 -39.5 -199.5zM531 923q155 114 222 197l98 62q33 -113 98 -206l-87 -53q-54 61 -90 159q-41 -50 -119 -129q-3 -4 -21 -22z" />
<glyph unicode="&#xf5;" horiz-adv-x="1112" d="M106 360q-66 299 107 548q87 128 196.5 190t243.5 62q151 0 274 -108q119 -110 153 -270q33 -158 7 -296t-111 -262q-88 -126 -202 -187t-254 -61q-142 0 -264 112q-117 111 -150 272zM160 1316q7 154 76 232.5t169 78.5q51 0 94 -19.5t86 -57.5q43 -39 77.5 -59.5 t63.5 -20.5q47 0 68.5 45t24.5 117h140q-10 -156 -74.5 -234t-171.5 -78q-52 0 -96 19t-86 59q-44 41 -76 62.5t-63 21.5q-49 0 -68.5 -45t-23.5 -121h-140zM351.5 637.5q-4.5 -105.5 20.5 -222.5q64 -293 232 -293q66 0 112.5 44t79.5 129q35 93 39 197.5t-20 225.5 q-32 152 -90 225t-143 73q-125 0 -191 -179q-35 -94 -39.5 -199.5z" />
<glyph unicode="&#xf6;" horiz-adv-x="1112" d="M106 360q-66 299 107 548q87 128 196.5 190t243.5 62q151 0 274 -108q119 -110 153 -270q33 -158 7 -296t-111 -262q-88 -126 -202 -187t-254 -61q-142 0 -264 112q-117 111 -150 272zM351.5 637.5q-4.5 -105.5 20.5 -222.5q64 -293 232 -293q66 0 112.5 44t79.5 129 q35 93 39 197.5t-20 225.5q-32 152 -90 225t-143 73q-125 0 -191 -179q-35 -94 -39.5 -199.5zM743 1033l112 86l87 -116l-112 -80zM1087 1035l114 84l85 -115l-110 -81z" />
<glyph unicode="&#xf7;" horiz-adv-x="1093" d="M157 383v106h776v-106h-776zM466 17v181h158v-181h-158zM466 674v181h158v-181h-158z" />
<glyph unicode="&#xf8;" horiz-adv-x="1112" d="M41 -147l168 261q-72 76 -112 187t-40 257q0 280 137.5 434.5t362.5 154.5q75 0 142 -20t124 -57l108 170h125l-152 -236q71 -77 111 -186t40 -260q0 -282 -136 -435t-362 -153q-79 0 -145 20.5t-124 56.5l-123 -194h-124zM248 558q0 -97 14.5 -169.5t43.5 -126.5 l429 670q-34 26 -78 40t-100 14q-147 0 -228 -107.5t-81 -320.5zM378 187q38 -29 79.5 -42.5t99.5 -13.5q145 0 226 106.5t81 320.5q0 99 -14.5 173t-42.5 125z" />
<glyph unicode="&#xf9;" horiz-adv-x="1142" d="M-80 914q85 125 177 185.5t187 60.5q174 0 210 -178q14 -56 12 -173l7 -490l2 1q1 -32 2.5 -53.5t3.5 -33.5q12 -50 36 -50q58 0 168 168q56 90 101 191t80 219l-1 375l271 16l-9 -345v2l7 -491q1 -113 8 -144q6 -31 33 -31q45 0 115.5 72t172.5 218l3 -209 q-92 -126 -181 -187t-183 -61q-175 0 -216 181q-15 57 -12 173l-2 83q-160 -437 -407 -437q-97 0 -155 54.5t-81 162.5q-5 29 -9.5 64t-6.5 75l-8 490q0 55 -1 91t-4 51q-5 14 -13 23t-22 9q-41 0 -111.5 -74t-169.5 -219zM472 1049q-3 37 74 -47q35 -80 56 -151 q7 -52 -4 -46q-22 32 -69.5 122t-56.5 122z" />
<glyph unicode="&#xfa;" horiz-adv-x="1142" d="M-80 914q85 125 177 185.5t187 60.5q174 0 210 -178q14 -56 12 -173l7 -490l2 1q1 -32 2.5 -53.5t3.5 -33.5q12 -50 36 -50q58 0 168 168q56 90 101 191t80 219l-1 375l271 16l-9 -345v2l7 -491q1 -113 8 -144q6 -31 33 -31q45 0 115.5 72t172.5 218l3 -209 q-92 -126 -181 -187t-183 -61q-175 0 -216 181q-15 57 -12 173l-2 83q-160 -437 -407 -437q-97 0 -155 54.5t-81 162.5q-5 29 -9.5 64t-6.5 75l-8 490q0 55 -1 91t-4 51q-5 14 -13 23t-22 9q-41 0 -111.5 -74t-169.5 -219zM403 848q21 71 56 151q77 84 74 47 q-9 -32 -56.5 -122t-69.5 -122q-11 -6 -4 46z" />
<glyph unicode="&#xfb;" horiz-adv-x="1142" d="M-80 914q85 125 177 185.5t187 60.5q174 0 210 -178q14 -56 12 -173l7 -490l2 1q1 -32 2.5 -53.5t3.5 -33.5q12 -50 36 -50q58 0 168 168q56 90 101 191t80 219l-1 375l271 16l-9 -345v2l7 -491q1 -113 8 -144q6 -31 33 -31q45 0 115.5 72t172.5 218l3 -209 q-92 -126 -181 -187t-183 -61q-175 0 -216 181q-15 57 -12 173l-2 83q-160 -437 -407 -437q-97 0 -155 54.5t-81 162.5q-5 29 -9.5 64t-6.5 75l-8 490q0 55 -1 91t-4 51q-5 14 -13 23t-22 9q-41 0 -111.5 -74t-169.5 -219zM538 923q155 114 222 197l98 62q33 -113 98 -206 l-87 -53q-54 61 -90 159q-41 -50 -119 -129q-3 -4 -21 -22z" />
<glyph unicode="&#xfc;" horiz-adv-x="1142" d="M-80 914q85 125 177 185.5t187 60.5q174 0 210 -178q14 -56 12 -173l7 -490l2 1q1 -32 2.5 -53.5t3.5 -33.5q12 -50 36 -50q58 0 168 168q56 90 101 191t80 219l-1 375l271 16l-9 -345v2l7 -491q1 -113 8 -144q6 -31 33 -31q45 0 115.5 72t172.5 218l3 -209 q-92 -126 -181 -187t-183 -61q-175 0 -216 181q-15 57 -12 173l-2 83q-160 -437 -407 -437q-97 0 -155 54.5t-81 162.5q-5 29 -9.5 64t-6.5 75l-8 490q0 55 -1 91t-4 51q-5 14 -13 23t-22 9q-41 0 -111.5 -74t-169.5 -219zM349 997l112 86l87 -116l-112 -80zM693 999l114 84 l85 -115l-110 -81z" />
<glyph unicode="&#xfd;" horiz-adv-x="1020" d="M-39 936q60 114 128.5 169t143.5 55q101 0 161 -86q27 -38 59.5 -115.5t73.5 -197.5l112 -330l-1 2q25 -76 45.5 -114.5t32.5 -38.5q23 0 51 41t62 118q10 17 44.5 106.5t96.5 255.5q1 81 4.5 169t4.5 166l273 16l-26 -351q-5 -174 -11 -351.5t-13 -352.5 q-8 -180 -52 -321.5t-122.5 -238.5t-190.5 -148t-257 -51q-110 0 -245 48l145 190q63 -32 120 -49.5t111 -17.5q121 0 172 89q26 48 41.5 133t19.5 213l12 437q-25 -65 -49 -118.5t-51 -100.5l-1 3q-93 -165 -176 -165q-48 0 -88.5 23.5t-70.5 71.5q-29 42 -61.5 116 t-70.5 180l-126 390q-64 187 -103 187q-43 0 -146 -177l-49 24zM346 848q21 71 56 151q77 84 74 47q-9 -32 -56.5 -122t-69.5 -122q-11 -6 -4 46z" />
<glyph unicode="&#xfe;" horiz-adv-x="1132" d="M136 -412v1968h188v-556q70 63 155.5 105.5t186.5 42.5q192 0 299.5 -152t107.5 -408q0 -279 -133.5 -444.5t-337.5 -165.5q-83 0 -147 19t-131 59v-468h-188zM324 209q74 -36 126.5 -49t120.5 -13q146 0 227 107t81 313q0 191 -61 296.5t-198 105.5q-80 0 -154.5 -35.5 t-141.5 -91.5v-633z" />
<glyph unicode="&#xff;" horiz-adv-x="1469" d="M-39 936q60 114 128.5 169t143.5 55q101 0 161 -86q27 -38 59.5 -115.5t73.5 -197.5l112 -330l-1 2q25 -76 45.5 -114.5t32.5 -38.5q23 0 51 41t62 118q10 17 44.5 106.5t96.5 255.5q1 81 4.5 169t4.5 166l273 16l-26 -351q-5 -174 -11 -351.5t-13 -352.5 q-8 -180 -52 -321.5t-122.5 -238.5t-190.5 -148t-257 -51q-110 0 -245 48l145 190q63 -32 120 -49.5t111 -17.5q121 0 172 89q26 48 41.5 133t19.5 213l12 437q-25 -65 -49 -118.5t-51 -100.5l-1 3q-93 -165 -176 -165q-48 0 -88.5 23.5t-70.5 71.5q-29 42 -61.5 116 t-70.5 180l-126 390q-64 187 -103 187q-43 0 -146 -177l-49 24zM708 1033l112 86l87 -116l-112 -80zM1052 1035l114 84l85 -115l-110 -81z" />
<glyph unicode="&#x152;" horiz-adv-x="1477" d="M167 378q0 283 191 499t441 216q132 0 218 -86l12 59h564l-64 -204h-45q6 29 6 51q0 56 -65.5 77.5t-237.5 21.5h-22l-83 -426h320l-73 -74q-164 21 -222 21h-36l-59 -315q-10 -51 -10 -62q0 -76 226 -76q120 0 225 80l-11 -57q-124 -126 -239 -126q-20 0 -42 2l-345 21 l15 70q-120 -97 -282 -97q-178 0 -280 108t-102 297zM329 395q0 -177 67.5 -277.5t188.5 -100.5q233 0 303 344l73 362q13 63 13 118q0 92 -57.5 149.5t-147.5 57.5q-165 0 -302.5 -204t-137.5 -449z" />
<glyph unicode="&#x153;" horiz-adv-x="1350" d="M145 237q0 211 157.5 386.5t347.5 175.5q144 0 209 -169q166 169 324 169q63 0 103.5 -41t40.5 -107q0 -143 -134.5 -237t-351.5 -103l-1 -33q0 -212 158 -212q115 0 329 134l-11 -54q-233 -164 -399 -164q-159 0 -211 163q-171 -163 -336 -163q-97 0 -161 73t-64 182z M292 272q0 -237 139 -237q113 0 205 143.5t92 320.5q0 108 -39 173t-105 65q-112 0 -202 -143t-90 -322zM844 355q160 13 253.5 83.5t93.5 181.5q0 113 -81 113q-86 0 -168.5 -117t-97.5 -261z" />
<glyph unicode="&#x178;" horiz-adv-x="1180" d="M-9 1399q70 90 135.5 135.5t128.5 45.5q71 0 133.5 -37.5t109.5 -103.5q45 -63 89 -168t86 -247v1l159 -549q24 -82 45 -125t38 -43q18 0 46 27.5t63 78.5q38 55 74 123t65 143l33 859l293 23l-28 -356v1l-30 -786q-30 -839 -598 -839q-91 0 -189.5 27.5t-207.5 86.5 l147 183q81 -79 160.5 -118t154.5 -39q227 0 244 468l6 159q-72 -146 -149 -219.5t-153 -73.5q-165 0 -256 319l-218 746l1 -1q-81 270 -161 270q-65 0 -215 -168zM778 1406l112 86l87 -116l-112 -80zM1122 1408l114 84l85 -115l-110 -81z" />
<glyph unicode="&#x2c6;" horiz-adv-x="862" d="M452 923q155 114 222 197l98 62q33 -113 98 -206l-87 -53q-54 61 -90 159q-41 -50 -119 -129q-3 -4 -21 -22z" />
<glyph unicode="&#x2dc;" horiz-adv-x="1118" d="M161 1316q7 154 76 232.5t169 78.5q51 0 94 -19.5t86 -57.5q43 -39 77.5 -59.5t63.5 -20.5q47 0 68.5 45t24.5 117h140q-10 -156 -74.5 -234t-171.5 -78q-52 0 -96 19t-86 59q-44 41 -76 62.5t-63 21.5q-49 0 -68.5 -45t-23.5 -121h-140z" />
<glyph unicode="&#x2000;" horiz-adv-x="993" />
<glyph unicode="&#x2001;" horiz-adv-x="1986" />
<glyph unicode="&#x2002;" horiz-adv-x="993" />
<glyph unicode="&#x2003;" horiz-adv-x="1986" />
<glyph unicode="&#x2004;" horiz-adv-x="662" />
<glyph unicode="&#x2005;" horiz-adv-x="496" />
<glyph unicode="&#x2006;" horiz-adv-x="331" />
<glyph unicode="&#x2007;" horiz-adv-x="331" />
<glyph unicode="&#x2008;" horiz-adv-x="248" />
<glyph unicode="&#x2009;" horiz-adv-x="397" />
<glyph unicode="&#x200a;" horiz-adv-x="110" />
<glyph unicode="&#x2010;" horiz-adv-x="867" d="M156 313v122h576v-122h-576z" />
<glyph unicode="&#x2011;" horiz-adv-x="867" d="M156 313v122h576v-122h-576z" />
<glyph unicode="&#x2012;" horiz-adv-x="867" d="M156 313v122h576v-122h-576z" />
<glyph unicode="&#x2013;" horiz-adv-x="434" d="M0 154v80h434v-80h-434z" />
<glyph unicode="&#x2014;" horiz-adv-x="1862" d="M-4 572v160h1870v-160h-1870z" />
<glyph unicode="&#x2018;" horiz-adv-x="688" d="M170 985q0 42 23.5 120t69.5 191q49 123 88.5 181.5t66.5 53.5l-70 -142q-50 -87 -75.5 -155t-25.5 -119l54 -52q52 -52 52 -78q0 -23 -7 -47t-20 -43.5t-31.5 -31.5t-40.5 -12q-84 0 -84 134z" />
<glyph unicode="&#x2019;" horiz-adv-x="724" d="M267 853l69 141q51 87 76.5 155t25.5 119l-54 52q-53 53 -53 78q0 24 7.5 47.5t20.5 43t31.5 31.5t40.5 12q44 0 64 -33.5t20 -100.5q0 -84 -94 -311q-99 -245 -154 -234z" />
<glyph unicode="&#x201a;" horiz-adv-x="418" d="M36 -213l40 45q113 10 135 150l-108 146l144 103l106 -141q-8 -146 -90.5 -224.5t-226.5 -78.5z" />
<glyph unicode="&#x201c;" horiz-adv-x="967" d="M170 985q0 42 23.5 120t69.5 191q49 123 88.5 181.5t66.5 53.5l-70 -142q-50 -87 -75.5 -155t-25.5 -119l54 -52q52 -52 52 -78q0 -23 -7 -47t-20 -43.5t-31.5 -31.5t-40.5 -12q-84 0 -84 134zM462 985q0 85 92 311q100 246 155 235l-69 -142q-51 -87 -76.5 -155 t-25.5 -119l55 -52q51 -53 51 -78q0 -23 -7 -47t-20 -43.5t-31.5 -31.5t-40.5 -12q-83 0 -83 134z" />
<glyph unicode="&#x201d;" horiz-adv-x="919" d="M170 853l68 141q103 174 103 274l-54 52q-53 53 -53 78q0 24 7 47.5t20.5 43t31.5 31.5t41 12q84 0 84 -134q0 -84 -94 -311q-99 -245 -154 -234zM462 853l68 141q103 174 103 274l-54 52q-53 53 -53 78q0 24 7 47.5t20 43t31.5 31.5t40.5 12q44 0 64 -33.5t20 -100.5 q0 -86 -93 -311q-99 -245 -154 -234z" />
<glyph unicode="&#x201e;" horiz-adv-x="684" d="M31 -213l29 45q106 20 119 152l-88 108l113 86l88 -114q-22 -277 -261 -277zM341 -213l31 45q104 20 118 152l-89 108l115 86l86 -114q-21 -277 -261 -277z" />
<glyph unicode="&#x2022;" horiz-adv-x="931" d="M114 662q0 145 103 248t248 103t248.5 -103t103.5 -248t-103.5 -248t-248.5 -103t-248 103t-103 248z" />
<glyph unicode="&#x2026;" horiz-adv-x="1827" d="M211 113q0 31 51 132.5t67 109.5q31 14 88.5 -47.5t60.5 -96.5q0 -45 -48 -131.5t-69 -86.5q-9 0 -57 33.5t-73 52.5q-20 17 -20 34zM758 113q0 31 51.5 132.5t66.5 109.5q31 14 88.5 -47.5t61.5 -96.5q0 -45 -48.5 -131.5t-69.5 -86.5q-9 0 -57 33.5t-73 52.5 q-20 17 -20 34zM1308 113q0 31 51 132.5t67 109.5q31 14 88.5 -47.5t60.5 -96.5q0 -45 -48 -131.5t-69 -86.5q-9 0 -57 33.5t-73 52.5q-20 17 -20 34z" />
<glyph unicode="&#x202f;" horiz-adv-x="397" />
<glyph unicode="&#x2039;" horiz-adv-x="560" d="M167 391q191 116 270 262l150 58q-51 -122 -272 -270q108 -131 184 -303l-124 -67q-71 166 -208 320z" />
<glyph unicode="&#x203a;" horiz-adv-x="560" d="M128 71q50 122 272 270q-107 129 -185 302l124 68q71 -166 207 -320q-190 -116 -270 -263z" />
<glyph unicode="&#x205f;" horiz-adv-x="496" />
<glyph unicode="&#x20ac;" horiz-adv-x="812" d="M111 315l9 45h62v4q7 37 12 56h-76l9 44h83q42 132 161.5 233.5t302.5 101.5q99 0 211 -30l-40 -145h-50q6 29 6 41q0 36 -44 61t-108 25q-204 0 -300 -287h337l-9 -44h-340q-2 -2 -5 -16l-7 -39v-5h340l-9 -45h-337v-26q0 -111 51 -173.5t142 -62.5q124 0 253 82 l-10 -63q-151 -90 -296 -90q-135 0 -209.5 77t-74.5 215v41h-64z" />
<glyph unicode="&#x2122;" horiz-adv-x="1333" d="M225 923l29 143h497l-28 -143h-62l18 98h-133l-90 -452h98l-9 -45h-302l10 45h97l90 452h-133l-19 -98h-63zM688 524l9 45h97l90 452h-97l9 45h240l56 -319l173 319h216l-8 -45h-98l-90 -452h98l-10 -45h-195l92 461l-229 -416h-30l-69 387l-85 -432h-169z" />
<glyph unicode="&#x25fc;" horiz-adv-x="1160" d="M0 0v1160h1160v-1160h-1160z" />
</font>
</defs>
</svg>
